STARTFONT 2.1
FONT -FontForge-Futura-Medium-R-Normal--21-200-75-75-P-115-ISO10646-1
SIZE 20 75 75
FONTBOUNDINGBOX 39 28 -11 -6
COMMENT "Generated by fontforge, http://fontforge.sourceforge.net"
COMMENT "(c) Copyright 1998, Neufville Digital. ALL RIGHTS RESERVED. This font is licensed, not sold, and may not be reproduced without the written consent of Neufville Digital. Parts (c) Visualogik Technology & Design, 1998."
STARTPROPERTIES 40
FOUNDRY "FontForge"
FAMILY_NAME "Futura"
WEIGHT_NAME "Medium"
SLANT "R"
SETWIDTH_NAME "Normal"
ADD_STYLE_NAME ""
PIXEL_SIZE 21
POINT_SIZE 200
RESOLUTION_X 75
RESOLUTION_Y 75
SPACING "P"
AVERAGE_WIDTH 115
CHARSET_REGISTRY "ISO10646"
CHARSET_ENCODING "1"
FONTNAME_REGISTRY ""
CHARSET_COLLECTIONS "ISO8859-2 ISO8859-9 ISO8859-4 ISO10646-1"
FONT_NAME "Futura-Medium"
FACE_NAME "Futura Medium"
COPYRIGHT "(c) Copyright 1998, Neufville Digital. ALL RIGHTS RESERVED. This font is licensed, not sold, and may not be reproduced without the written consent of Neufville Digital. Parts (c) Visualogik Technology & Design, 1998."
FONT_VERSION "16.0d2e1"
FONT_ASCENT 17
FONT_DESCENT 4
UNDERLINE_POSITION -3
UNDERLINE_THICKNESS 2
X_HEIGHT 9
CAP_HEIGHT 15
RAW_ASCENT 799
RAW_DESCENT 200
NORM_SPACE 6
RELATIVE_WEIGHT 50
RELATIVE_SETWIDTH 50
SUPERSCRIPT_X 0
SUPERSCRIPT_Y 9
SUPERSCRIPT_SIZE 12
SUBSCRIPT_X 0
SUBSCRIPT_Y 1
SUBSCRIPT_SIZE 12
FIGURE_WIDTH 13
AVG_LOWERCASE_WIDTH 108
AVG_UPPERCASE_WIDTH 141
ENDPROPERTIES
CHARS 419
STARTCHAR .null
ENCODING 0
SWIDTH 0 0
DWIDTH 0 0
BBX 1 1 0 0
BITMAP
00
ENDCHAR
STARTCHAR controlBS
ENCODING 8
SWIDTH 0 0
DWIDTH 0 0
BBX 1 1 0 0
BITMAP
00
ENDCHAR
STARTCHAR controlHT
ENCODING 9
SWIDTH 308 0
DWIDTH 6 0
BBX 1 1 0 0
BITMAP
00
ENDCHAR
STARTCHAR controlCR
ENCODING 13
SWIDTH 500 0
DWIDTH 11 0
BBX 1 1 0 0
BITMAP
00
ENDCHAR
STARTCHAR controlGS
ENCODING 29
SWIDTH 0 0
DWIDTH 0 0
BBX 1 1 0 0
BITMAP
00
ENDCHAR
STARTCHAR space
ENCODING 32
SWIDTH 308 0
DWIDTH 6 0
BBX 1 1 0 0
BITMAP
00
ENDCHAR
STARTCHAR exclam
ENCODING 33
SWIDTH 331 0
DWIDTH 7 0
BBX 3 16 2 0
BITMAP
E0
E0
E0
E0
E0
E0
E0
E0
E0
E0
E0
E0
00
40
E0
E0
ENDCHAR
STARTCHAR quotedbl
ENCODING 34
SWIDTH 410 0
DWIDTH 9 0
BBX 6 7 1 9
BITMAP
EC
EC
EC
EC
CC
CC
4C
ENDCHAR
STARTCHAR numbersign
ENCODING 35
SWIDTH 617 0
DWIDTH 13 0
BBX 13 16 0 0
BITMAP
0C60
0C60
0C60
0C40
08C0
7FF8
18C0
18C0
18C0
FFF0
FFF0
1880
1080
3180
3180
3180
ENDCHAR
STARTCHAR dollar
ENCODING 36
SWIDTH 617 0
DWIDTH 13 0
BBX 10 20 1 -2
BITMAP
0600
0600
1F00
3F80
31C0
7000
7000
3800
3E00
1F00
0780
01C0
00C0
60C0
E0C0
71C0
7F80
1F00
0600
0600
ENDCHAR
STARTCHAR percent
ENCODING 37
SWIDTH 916 0
DWIDTH 19 0
BBX 17 16 1 0
BITMAP
3C0C00
7E0800
C61800
C21000
C62000
E66000
7C4000
00C000
008000
019F00
033B80
023180
063080
043180
0C3F80
081F00
ENDCHAR
STARTCHAR ampersand
ENCODING 38
SWIDTH 730 0
DWIDTH 15 0
BBX 14 16 1 0
BITMAP
0F00
1F80
39C0
30C0
39C0
1F80
0F00
1E00
3F00
7398
E1F8
E0F0
E0F0
71F0
7FB8
3F1C
ENDCHAR
STARTCHAR quotesingle
ENCODING 39
SWIDTH 231 0
DWIDTH 5 0
BBX 3 7 1 9
BITMAP
E0
E0
E0
E0
C0
C0
40
ENDCHAR
STARTCHAR parenleft
ENCODING 40
SWIDTH 366 0
DWIDTH 8 0
BBX 4 21 2 -4
BITMAP
30
70
60
60
E0
E0
C0
C0
C0
C0
C0
C0
C0
C0
E0
E0
E0
60
60
70
30
ENDCHAR
STARTCHAR parenright
ENCODING 41
SWIDTH 366 0
DWIDTH 8 0
BBX 5 21 1 -4
BITMAP
E0
60
70
30
30
30
38
38
38
38
38
38
38
38
38
30
30
30
70
60
E0
ENDCHAR
STARTCHAR asterisk
ENCODING 42
SWIDTH 617 0
DWIDTH 13 0
BBX 7 7 3 10
BITMAP
30
10
FE
FE
38
6C
6C
ENDCHAR
STARTCHAR plus
ENCODING 43
SWIDTH 617 0
DWIDTH 13 0
BBX 11 11 1 3
BITMAP
0400
0400
0400
0400
0400
FFE0
FFE0
0400
0400
0400
0400
ENDCHAR
STARTCHAR comma
ENCODING 44
SWIDTH 308 0
DWIDTH 6 0
BBX 4 6 1 -3
BITMAP
20
70
60
E0
C0
C0
ENDCHAR
STARTCHAR hyphen
ENCODING 45
SWIDTH 217 0
DWIDTH 5 0
BBX 5 2 0 4
BITMAP
F8
F8
ENDCHAR
STARTCHAR period
ENCODING 46
SWIDTH 308 0
DWIDTH 6 0
BBX 3 3 2 0
BITMAP
40
E0
E0
ENDCHAR
STARTCHAR slash
ENCODING 47
SWIDTH 518 0
DWIDTH 11 0
BBX 11 21 0 -4
BITMAP
00E0
00C0
00C0
0180
0180
0380
0300
0700
0600
0600
0C00
0C00
1C00
1800
3800
3000
3000
6000
6000
E000
C000
ENDCHAR
STARTCHAR zero
ENCODING 48
SWIDTH 617 0
DWIDTH 13 0
BBX 11 16 1 0
BITMAP
1F00
3F80
71C0
60C0
E0E0
E0E0
C060
C060
C060
C060
C0E0
E0E0
60C0
71C0
3F80
1F00
ENDCHAR
STARTCHAR one
ENCODING 49
SWIDTH 617 0
DWIDTH 13 0
BBX 5 16 3 0
BITMAP
78
F8
18
18
18
18
18
18
18
18
18
18
18
18
18
18
ENDCHAR
STARTCHAR two
ENCODING 50
SWIDTH 617 0
DWIDTH 13 0
BBX 10 16 1 0
BITMAP
3F00
7F80
71C0
E0C0
C0C0
00C0
01C0
0380
0380
0700
0E00
1C00
3800
3000
7FC0
FFC0
ENDCHAR
STARTCHAR three
ENCODING 51
SWIDTH 617 0
DWIDTH 13 0
BBX 10 16 1 0
BITMAP
3F00
7F80
7380
E1C0
01C0
01C0
0380
0F00
0F80
01C0
00C0
00C0
C1C0
E1C0
7F80
3F00
ENDCHAR
STARTCHAR four
ENCODING 52
SWIDTH 617 0
DWIDTH 13 0
BBX 12 16 0 0
BITMAP
0040
0040
00C0
01C0
01C0
03C0
07C0
0EC0
0CC0
1CC0
38C0
30C0
7FF0
FFF0
00C0
00C0
ENDCHAR
STARTCHAR five
ENCODING 53
SWIDTH 617 0
DWIDTH 13 0
BBX 10 16 1 0
BITMAP
1FC0
1FC0
1800
1800
3800
3E00
3F80
63C0
41C0
00C0
00C0
00C0
C1C0
E3C0
FF80
3E00
ENDCHAR
STARTCHAR six
ENCODING 54
SWIDTH 617 0
DWIDTH 13 0
BBX 11 16 1 0
BITMAP
0100
0380
0700
0E00
0C00
1C00
3F00
7F80
71C0
E0E0
E0E0
E0E0
E0E0
71C0
3F80
1F00
ENDCHAR
STARTCHAR seven
ENCODING 55
SWIDTH 617 0
DWIDTH 13 0
BBX 12 16 1 0
BITMAP
FFF0
FFE0
00C0
01C0
0180
0380
0700
0600
0E00
0C00
1C00
3800
3000
7000
6000
E000
ENDCHAR
STARTCHAR eight
ENCODING 56
SWIDTH 617 0
DWIDTH 13 0
BBX 10 16 1 0
BITMAP
1F00
3F80
71C0
60C0
60C0
60C0
71C0
3F80
3F80
71C0
60C0
E0C0
60C0
71C0
3F80
1F00
ENDCHAR
STARTCHAR nine
ENCODING 57
SWIDTH 617 0
DWIDTH 13 0
BBX 11 16 1 0
BITMAP
1F00
3F80
71C0
E0E0
E0E0
E0E0
E0E0
71C0
7FC0
1F80
0700
0600
0E00
1C00
1800
3000
ENDCHAR
STARTCHAR colon
ENCODING 58
SWIDTH 308 0
DWIDTH 6 0
BBX 3 10 2 0
BITMAP
E0
E0
40
00
00
00
00
40
E0
E0
ENDCHAR
STARTCHAR semicolon
ENCODING 59
SWIDTH 308 0
DWIDTH 6 0
BBX 4 13 1 -3
BITMAP
70
70
20
00
00
00
00
20
70
60
E0
C0
C0
ENDCHAR
STARTCHAR less
ENCODING 60
SWIDTH 617 0
DWIDTH 13 0
BBX 11 12 1 2
BITMAP
0060
01E0
07C0
1F00
7C00
F000
F000
7C00
1F00
03C0
00E0
0020
ENDCHAR
STARTCHAR equal
ENCODING 61
SWIDTH 617 0
DWIDTH 13 0
BBX 11 5 1 6
BITMAP
FFE0
FFE0
0000
0000
FFE0
ENDCHAR
STARTCHAR greater
ENCODING 62
SWIDTH 617 0
DWIDTH 13 0
BBX 11 12 1 2
BITMAP
8000
F000
7C00
1F00
07C0
01E0
01E0
07C0
1F00
7800
E000
8000
ENDCHAR
STARTCHAR question
ENCODING 63
SWIDTH 489 0
DWIDTH 10 0
BBX 8 16 1 0
BITMAP
3C
7E
E7
E3
E7
0F
3E
78
60
67
7E
3C
00
08
1C
18
ENDCHAR
STARTCHAR at
ENCODING 64
SWIDTH 880 0
DWIDTH 18 0
BBX 16 16 1 0
BITMAP
07F0
1E3C
3806
7002
63DB
C7F1
CE31
CC31
CC31
CC33
CE72
67DE
6398
3800
1E1C
07F8
ENDCHAR
STARTCHAR A
ENCODING 65
SWIDTH 740 0
DWIDTH 16 0
BBX 15 16 0 0
BITMAP
0180
0180
0380
03C0
07C0
06E0
0660
0E70
0C30
1C38
1FF8
3FF8
301C
700C
600E
E006
ENDCHAR
STARTCHAR B
ENCODING 66
SWIDTH 591 0
DWIDTH 12 0
BBX 9 16 2 0
BITMAP
F800
FE00
CE00
C700
C300
C300
C600
FE00
FF00
C380
C180
C180
C180
C780
FF00
FE00
ENDCHAR
STARTCHAR C
ENCODING 67
SWIDTH 700 0
DWIDTH 15 0
BBX 13 16 1 0
BITMAP
07F0
1FF8
3C38
3808
7000
6000
E000
E000
E000
E000
E000
7000
7008
3C18
1FF8
07F0
ENDCHAR
STARTCHAR D
ENCODING 68
SWIDTH 726 0
DWIDTH 15 0
BBX 12 16 2 0
BITMAP
FE00
FF80
C7C0
C0E0
C060
C070
C030
C030
C030
C030
C070
C060
C0E0
C3C0
FF80
FE00
ENDCHAR
STARTCHAR E
ENCODING 69
SWIDTH 565 0
DWIDTH 12 0
BBX 9 16 2 0
BITMAP
FF80
FF80
C000
C000
C000
C000
FF00
FF00
C000
C000
C000
C000
C000
C000
FF80
FF80
ENDCHAR
STARTCHAR F
ENCODING 70
SWIDTH 508 0
DWIDTH 11 0
BBX 8 16 2 0
BITMAP
FF
FF
C0
C0
C0
C0
FF
FF
C0
C0
C0
C0
C0
C0
C0
C0
ENDCHAR
STARTCHAR G
ENCODING 71
SWIDTH 842 0
DWIDTH 18 0
BBX 16 16 1 0
BITMAP
07F0
1FF8
3C3C
780C
7000
6000
E000
E000
E07F
E07F
E006
7006
700E
3C1C
1FF8
07F0
ENDCHAR
STARTCHAR H
ENCODING 72
SWIDTH 733 0
DWIDTH 15 0
BBX 12 16 2 0
BITMAP
C070
C070
C070
C070
C070
C070
FFF0
FFF0
FFF0
C070
C070
C070
C070
C070
C070
C070
ENDCHAR
STARTCHAR I
ENCODING 73
SWIDTH 294 0
DWIDTH 6 0
BBX 2 16 2 0
BITMAP
C0
C0
C0
C0
C0
C0
C0
C0
C0
C0
C0
C0
C0
C0
C0
C0
ENDCHAR
STARTCHAR J
ENCODING 74
SWIDTH 410 0
DWIDTH 9 0
BBX 7 16 0 0
BITMAP
0E
0E
0E
0E
0E
0E
0E
0E
0E
0E
0E
0E
0E
0C
FC
F8
ENDCHAR
STARTCHAR K
ENCODING 75
SWIDTH 662 0
DWIDTH 14 0
BBX 11 16 2 0
BITMAP
C0E0
C1C0
C380
C700
CE00
DC00
F800
F800
F800
DC00
CE00
C700
C380
C3C0
C1C0
C0E0
ENDCHAR
STARTCHAR L
ENCODING 76
SWIDTH 443 0
DWIDTH 9 0
BBX 7 16 2 0
BITMAP
C0
C0
C0
C0
C0
C0
C0
C0
C0
C0
C0
C0
C0
C0
FE
FE
ENDCHAR
STARTCHAR M
ENCODING 77
SWIDTH 961 0
DWIDTH 20 0
BBX 18 17 1 0
BITMAP
000200
100200
180200
180600
1C0700
1C0F00
3E0F00
3E1F00
361B00
373B00
333380
73F380
71E180
61E180
60E180
60C180
E041C0
ENDCHAR
STARTCHAR N
ENCODING 78
SWIDTH 844 0
DWIDTH 18 0
BBX 14 17 2 -1
BITMAP
801C
C01C
E01C
F01C
F81C
DC1C
CE1C
C71C
C39C
C1DC
C0FC
C07C
C03C
C01C
C01C
C00C
0004
ENDCHAR
STARTCHAR O
ENCODING 79
SWIDTH 893 0
DWIDTH 19 0
BBX 17 16 1 0
BITMAP
07F000
1FF800
3C1C00
380E00
700700
E00300
E00380
E00380
E00380
E00380
E00300
700700
700E00
3C1E00
1FFC00
07F000
ENDCHAR
STARTCHAR P
ENCODING 80
SWIDTH 540 0
DWIDTH 11 0
BBX 9 16 2 0
BITMAP
FC00
FE00
CF00
C380
C380
C380
C380
FF00
FE00
F800
C000
C000
C000
C000
C000
C000
ENDCHAR
STARTCHAR Q
ENCODING 81
SWIDTH 893 0
DWIDTH 19 0
BBX 17 16 1 0
BITMAP
07F000
1FF800
3C1C00
780E00
700700
600300
E00300
E00380
E00380
E00380
E0E300
607700
703E00
3C1E00
1FFE00
07F700
ENDCHAR
STARTCHAR R
ENCODING 82
SWIDTH 602 0
DWIDTH 13 0
BBX 10 16 2 0
BITMAP
FC00
FE00
CF00
C380
C380
C380
C300
FF00
FE00
F800
DC00
CE00
C700
C700
C380
C1C0
ENDCHAR
STARTCHAR S
ENCODING 83
SWIDTH 583 0
DWIDTH 12 0
BBX 10 16 1 0
BITMAP
1F00
3F80
71C0
6000
6000
7000
3C00
1F00
0780
01C0
00C0
60C0
E0C0
71C0
7F80
3F00
ENDCHAR
STARTCHAR T
ENCODING 84
SWIDTH 482 0
DWIDTH 10 0
BBX 10 16 0 0
BITMAP
FFC0
FFC0
0C00
0C00
0C00
0C00
0C00
0C00
0C00
0C00
0C00
0C00
0C00
0C00
0C00
0C00
ENDCHAR
STARTCHAR U
ENCODING 85
SWIDTH 738 0
DWIDTH 16 0
BBX 12 16 2 0
BITMAP
C070
C070
C070
C070
C070
C070
C070
C070
C070
C070
C070
C070
E060
70E0
7FC0
1F80
ENDCHAR
STARTCHAR V
ENCODING 86
SWIDTH 676 0
DWIDTH 14 0
BBX 14 16 0 0
BITMAP
E01C
601C
7018
7038
3030
3870
1860
1C60
1CE0
0CC0
0FC0
0780
0780
0380
0300
0300
ENDCHAR
STARTCHAR W
ENCODING 87
SWIDTH 1060 0
DWIDTH 22 0
BBX 22 16 0 0
BITMAP
E0101C
60301C
703018
703838
307830
387870
18FC70
1CCC60
1CCCE0
0DCEC0
0F87C0
078780
078780
070380
030300
020100
ENDCHAR
STARTCHAR X
ENCODING 88
SWIDTH 617 0
DWIDTH 13 0
BBX 11 16 1 0
BITMAP
E060
60E0
71C0
31C0
3B80
1F00
1F00
0E00
0E00
1F00
1B80
3B80
71C0
60C0
E0E0
C060
ENDCHAR
STARTCHAR Y
ENCODING 89
SWIDTH 600 0
DWIDTH 13 0
BBX 12 16 0 0
BITMAP
E030
6070
7060
38E0
39C0
1DC0
0F80
0F00
0700
0600
0600
0600
0600
0600
0600
0600
ENDCHAR
STARTCHAR Z
ENCODING 90
SWIDTH 625 0
DWIDTH 13 0
BBX 11 16 1 0
BITMAP
7FE0
7FE0
01C0
01C0
0380
0300
0700
0600
0E00
1C00
1800
3800
3000
7000
7FE0
FFE0
ENDCHAR
STARTCHAR bracketleft
ENCODING 91
SWIDTH 357 0
DWIDTH 8 0
BBX 4 21 2 -4
BITMAP
F0
F0
C0
C0
C0
C0
C0
C0
C0
C0
C0
C0
C0
C0
C0
C0
C0
C0
C0
F0
F0
ENDCHAR
STARTCHAR backslash
ENCODING 92
SWIDTH 518 0
DWIDTH 11 0
BBX 11 21 0 -4
BITMAP
C000
6000
6000
7000
3000
3800
1800
1800
0C00
0C00
0E00
0600
0700
0300
0300
0180
0180
00C0
00C0
00E0
0060
ENDCHAR
STARTCHAR bracketright
ENCODING 93
SWIDTH 357 0
DWIDTH 8 0
BBX 4 21 1 -4
BITMAP
F0
F0
30
30
30
30
30
30
30
30
30
30
30
30
30
30
30
30
30
F0
F0
ENDCHAR
STARTCHAR asciicircum
ENCODING 94
SWIDTH 565 0
DWIDTH 12 0
BBX 11 8 0 8
BITMAP
0F00
0F00
1F80
1980
39C0
30C0
70E0
E060
ENDCHAR
STARTCHAR underscore
ENCODING 95
SWIDTH 565 0
DWIDTH 12 0
BBX 12 2 0 -3
BITMAP
FFF0
FFF0
ENDCHAR
STARTCHAR grave
ENCODING 96
SWIDTH 565 0
DWIDTH 12 0
BBX 5 4 2 12
BITMAP
60
E0
30
18
ENDCHAR
STARTCHAR a
ENCODING 97
SWIDTH 599 0
DWIDTH 13 0
BBX 10 10 1 0
BITMAP
3EC0
7FC0
E1C0
E0C0
C0C0
C0C0
E0C0
E1C0
7FC0
3EC0
ENDCHAR
STARTCHAR b
ENCODING 98
SWIDTH 599 0
DWIDTH 13 0
BBX 11 17 1 0
BITMAP
E000
E000
E000
E000
E000
E000
E000
EF00
FF80
F1C0
E0C0
E0E0
E0E0
E0C0
F1C0
FF80
FF00
ENDCHAR
STARTCHAR c
ENCODING 99
SWIDTH 476 0
DWIDTH 10 0
BBX 8 10 1 0
BITMAP
1F
7F
61
E0
C0
C0
E0
61
7F
3F
ENDCHAR
STARTCHAR d
ENCODING 100
SWIDTH 599 0
DWIDTH 13 0
BBX 10 17 1 0
BITMAP
00C0
00C0
00C0
00C0
00C0
00C0
00C0
3EC0
7FC0
E1C0
E0C0
C0C0
C0C0
E0C0
E1C0
7FC0
3EC0
ENDCHAR
STARTCHAR e
ENCODING 101
SWIDTH 553 0
DWIDTH 12 0
BBX 10 10 1 0
BITMAP
3F00
7F80
E180
E180
FFC0
FFC0
E000
E1C0
7F80
3F00
ENDCHAR
STARTCHAR f
ENCODING 102
SWIDTH 296 0
DWIDTH 6 0
BBX 5 18 1 0
BITMAP
18
78
78
60
60
60
60
60
F8
F8
60
60
60
60
60
60
60
60
ENDCHAR
STARTCHAR g
ENCODING 103
SWIDTH 598 0
DWIDTH 13 0
BBX 10 15 1 -5
BITMAP
3EC0
7FC0
61C0
E0C0
C0C0
C0C0
E0C0
E1C0
7FC0
3EC0
00C0
E0C0
61C0
7F80
3F00
ENDCHAR
STARTCHAR h
ENCODING 104
SWIDTH 548 0
DWIDTH 12 0
BBX 9 17 1 0
BITMAP
E000
E000
E000
E000
E000
E000
E000
FF00
FF80
E380
E180
E180
E180
E180
E180
E180
E180
ENDCHAR
STARTCHAR i
ENCODING 105
SWIDTH 249 0
DWIDTH 5 0
BBX 3 16 1 0
BITMAP
40
E0
E0
00
00
00
E0
E0
E0
E0
E0
E0
E0
E0
E0
E0
ENDCHAR
STARTCHAR j
ENCODING 106
SWIDTH 249 0
DWIDTH 5 0
BBX 3 21 1 -5
BITMAP
40
E0
E0
00
00
00
E0
E0
E0
E0
E0
E0
E0
E0
E0
E0
E0
E0
E0
E0
E0
ENDCHAR
STARTCHAR k
ENCODING 107
SWIDTH 498 0
DWIDTH 10 0
BBX 9 17 1 0
BITMAP
E000
E000
E000
E000
E000
E000
E000
E380
E700
EE00
F800
F800
FC00
EE00
EE00
E700
E380
ENDCHAR
STARTCHAR l
ENCODING 108
SWIDTH 249 0
DWIDTH 5 0
BBX 3 17 1 0
BITMAP
E0
E0
E0
E0
E0
E0
E0
E0
E0
E0
E0
E0
E0
E0
E0
E0
E0
ENDCHAR
STARTCHAR m
ENCODING 109
SWIDTH 791 0
DWIDTH 17 0
BBX 14 10 1 0
BITMAP
FE78
FFFC
E38C
E38C
E30C
E30C
E30C
E30C
E30C
E30C
ENDCHAR
STARTCHAR n
ENCODING 110
SWIDTH 548 0
DWIDTH 12 0
BBX 9 10 1 0
BITMAP
FF00
FF80
E380
E180
E180
E180
E180
E180
E180
E180
ENDCHAR
STARTCHAR o
ENCODING 111
SWIDTH 601 0
DWIDTH 13 0
BBX 11 10 1 0
BITMAP
3F00
7F80
61C0
E0C0
C0E0
C0E0
E0C0
61C0
7F80
3F00
ENDCHAR
STARTCHAR p
ENCODING 112
SWIDTH 599 0
DWIDTH 13 0
BBX 11 15 1 -5
BITMAP
FF00
FF80
F1C0
E0C0
E0E0
E0E0
E0C0
F1C0
FFC0
FF00
E000
E000
E000
E000
E000
ENDCHAR
STARTCHAR q
ENCODING 113
SWIDTH 599 0
DWIDTH 13 0
BBX 10 15 1 -5
BITMAP
3EC0
7FC0
61C0
E0C0
C0C0
C0C0
E0C0
E1C0
7FC0
3EC0
00C0
00C0
00C0
00C0
00C0
ENDCHAR
STARTCHAR r
ENCODING 114
SWIDTH 374 0
DWIDTH 8 0
BBX 7 10 1 0
BITMAP
FE
FC
E0
E0
E0
E0
E0
E0
E0
E0
ENDCHAR
STARTCHAR s
ENCODING 115
SWIDTH 405 0
DWIDTH 9 0
BBX 7 10 1 0
BITMAP
78
7C
C8
E0
78
1E
0E
46
FE
7C
ENDCHAR
STARTCHAR t
ENCODING 116
SWIDTH 273 0
DWIDTH 6 0
BBX 5 14 1 0
BITMAP
60
60
60
60
F8
F8
60
60
60
60
60
60
60
60
ENDCHAR
STARTCHAR u
ENCODING 117
SWIDTH 544 0
DWIDTH 11 0
BBX 9 10 1 0
BITMAP
E180
E180
E180
E180
E180
E180
E180
6380
7F00
3E00
ENDCHAR
STARTCHAR v
ENCODING 118
SWIDTH 502 0
DWIDTH 11 0
BBX 10 10 0 0
BITMAP
E0C0
61C0
7180
3380
3B00
1F00
1E00
0E00
0C00
0400
ENDCHAR
STARTCHAR w
ENCODING 119
SWIDTH 773 0
DWIDTH 16 0
BBX 16 10 0 0
BITMAP
E087
6186
71CE
33CC
3BCC
1F78
1E78
0E38
0C30
0430
ENDCHAR
STARTCHAR x
ENCODING 120
SWIDTH 558 0
DWIDTH 12 0
BBX 10 10 1 0
BITMAP
E1C0
7380
3F00
1E00
1C00
1E00
3F00
7380
E180
C1C0
ENDCHAR
STARTCHAR y
ENCODING 121
SWIDTH 543 0
DWIDTH 11 0
BBX 11 15 0 -5
BITMAP
E0E0
70E0
71C0
39C0
1B80
1F00
0F00
0E00
0E00
0C00
1C00
1800
3800
3000
7000
ENDCHAR
STARTCHAR z
ENCODING 122
SWIDTH 543 0
DWIDTH 11 0
BBX 10 10 1 0
BITMAP
7FC0
7F80
0700
0600
0E00
1C00
3800
7000
FFC0
FFC0
ENDCHAR
STARTCHAR braceleft
ENCODING 123
SWIDTH 357 0
DWIDTH 8 0
BBX 5 21 1 -4
BITMAP
38
78
70
70
70
70
70
70
70
E0
C0
E0
70
70
70
70
70
70
70
78
38
ENDCHAR
STARTCHAR bar
ENCODING 124
SWIDTH 565 0
DWIDTH 12 0
BBX 2 20 5 -4
BITMAP
C0
C0
C0
C0
C0
C0
C0
C0
C0
C0
C0
C0
C0
C0
C0
C0
C0
C0
C0
C0
ENDCHAR
STARTCHAR braceright
ENCODING 125
SWIDTH 357 0
DWIDTH 8 0
BBX 6 21 1 -4
BITMAP
F0
F0
30
30
30
30
30
30
30
38
1C
3C
30
30
30
30
30
30
30
F0
F0
ENDCHAR
STARTCHAR asciitilde
ENCODING 126
SWIDTH 753 0
DWIDTH 16 0
BBX 12 4 2 14
BITMAP
0020
7E30
7FE0
C3C0
ENDCHAR
STARTCHAR nonbreakingspace
ENCODING 160
SWIDTH 308 0
DWIDTH 6 0
BBX 1 1 0 0
BITMAP
00
ENDCHAR
STARTCHAR exclamdown
ENCODING 161
SWIDTH 331 0
DWIDTH 7 0
BBX 3 16 2 -4
BITMAP
E0
E0
00
E0
E0
E0
E0
E0
E0
E0
E0
E0
E0
E0
E0
E0
ENDCHAR
STARTCHAR cent
ENCODING 162
SWIDTH 617 0
DWIDTH 13 0
BBX 8 14 2 1
BITMAP
0C
0C
3F
7F
E1
E0
C0
C0
C0
E1
7F
3F
0C
0C
ENDCHAR
STARTCHAR sterling
ENCODING 163
SWIDTH 617 0
DWIDTH 13 0
BBX 12 16 1 0
BITMAP
1F00
3FC0
79C0
60E0
6060
6040
6000
7000
FE00
FE00
1800
1800
1800
7E70
FFE0
C7C0
ENDCHAR
STARTCHAR currency
ENCODING 164
SWIDTH 617 0
DWIDTH 13 0
BBX 13 13 0 2
BITMAP
C218
FFF8
7FF0
7070
6030
6030
6030
6030
7070
38E0
7FF0
EF98
C008
ENDCHAR
STARTCHAR yen
ENCODING 165
SWIDTH 617 0
DWIDTH 13 0
BBX 11 16 1 0
BITMAP
C060
E0E0
60C0
71C0
3180
FBE0
FFE0
1F00
0E00
FFE0
0E00
0E00
0E00
0E00
0E00
0E00
ENDCHAR
STARTCHAR brokenbar
ENCODING 166
SWIDTH 565 0
DWIDTH 12 0
BBX 2 20 5 -4
BITMAP
C0
C0
C0
C0
C0
C0
C0
C0
00
00
00
00
C0
C0
C0
C0
C0
C0
C0
C0
ENDCHAR
STARTCHAR section
ENCODING 167
SWIDTH 617 0
DWIDTH 13 0
BBX 9 21 2 -4
BITMAP
3F00
7F80
E180
E180
E000
7000
3C00
7F00
E380
C180
C180
C180
F380
3F00
0F00
0300
0380
C380
E380
FF00
7E00
ENDCHAR
STARTCHAR dieresis
ENCODING 168
SWIDTH 565 0
DWIDTH 12 0
BBX 8 3 2 12
BITMAP
42
E7
E6
ENDCHAR
STARTCHAR copyright
ENCODING 169
SWIDTH 857 0
DWIDTH 18 0
BBX 16 16 1 0
BITMAP
07E0
1838
300C
61C6
47E2
CC03
8801
9801
9801
9801
CC03
47E3
63E6
300C
1818
0FF0
ENDCHAR
STARTCHAR ordfeminine
ENCODING 170
SWIDTH 409 0
DWIDTH 9 0
BBX 6 7 1 9
BITMAP
34
7C
C4
C4
C4
7C
34
ENDCHAR
STARTCHAR guillemotleft
ENCODING 171
SWIDTH 575 0
DWIDTH 12 0
BBX 10 10 1 0
BITMAP
1880
1980
3380
6700
E600
E600
7300
3380
19C0
0880
ENDCHAR
STARTCHAR logicalnot
ENCODING 172
SWIDTH 565 0
DWIDTH 12 0
BBX 10 6 1 0
BITMAP
FFC0
FFC0
00C0
00C0
00C0
00C0
ENDCHAR
STARTCHAR softhyphen
ENCODING 173
SWIDTH 217 0
DWIDTH 5 0
BBX 5 2 0 4
BITMAP
F8
F8
ENDCHAR
STARTCHAR registered
ENCODING 174
SWIDTH 857 0
DWIDTH 18 0
BBX 16 16 1 0
BITMAP
07E0
1838
300C
6786
47C2
C663
8661
86E1
87C1
8781
C6C3
4663
6676
300C
1818
0FF0
ENDCHAR
STARTCHAR macron
ENCODING 175
SWIDTH 565 0
DWIDTH 12 0
BBX 8 2 2 12
BITMAP
FF
FF
ENDCHAR
STARTCHAR degree
ENCODING 176
SWIDTH 641 0
DWIDTH 13 0
BBX 6 6 4 10
BITMAP
78
F8
8C
8C
CC
78
ENDCHAR
STARTCHAR plusminus
ENCODING 177
SWIDTH 617 0
DWIDTH 13 0
BBX 11 14 1 0
BITMAP
0400
0400
0400
0400
0400
FFE0
FFE0
0400
0400
0400
0400
0000
FFE0
FFE0
ENDCHAR
STARTCHAR twosuperior
ENCODING 178
SWIDTH 437 0
DWIDTH 9 0
BBX 7 10 1 6
BITMAP
78
6C
C4
04
0C
18
38
30
7E
FE
ENDCHAR
STARTCHAR threesuperior
ENCODING 179
SWIDTH 437 0
DWIDTH 9 0
BBX 6 10 1 6
BITMAP
78
6C
C4
0C
18
0C
04
C4
FC
38
ENDCHAR
STARTCHAR acute
ENCODING 180
SWIDTH 565 0
DWIDTH 12 0
BBX 4 4 5 12
BITMAP
30
30
60
C0
ENDCHAR
STARTCHAR mu
ENCODING 181
SWIDTH 544 0
DWIDTH 11 0
BBX 9 15 1 -5
BITMAP
E180
E180
E180
E180
E180
E180
E180
E380
FF00
FE00
E000
E000
E000
E000
E000
ENDCHAR
STARTCHAR paragraph
ENCODING 182
SWIDTH 617 0
DWIDTH 13 0
BBX 12 18 0 -2
BITMAP
1FF0
7FF0
7CC0
FCC0
FCC0
7CC0
7CC0
3CC0
0CC0
0CC0
0CC0
0CC0
0CC0
0CC0
0CC0
0CC0
0CC0
0CC0
ENDCHAR
STARTCHAR periodcentered
ENCODING 183
SWIDTH 308 0
DWIDTH 6 0
BBX 3 2 2 7
BITMAP
E0
E0
ENDCHAR
STARTCHAR cedilla
ENCODING 184
SWIDTH 565 0
DWIDTH 12 0
BBX 4 4 4 -5
BITMAP
20
70
60
C0
ENDCHAR
STARTCHAR onesuperior
ENCODING 185
SWIDTH 437 0
DWIDTH 9 0
BBX 4 10 2 6
BITMAP
70
F0
30
30
30
30
30
30
30
30
ENDCHAR
STARTCHAR ordmasculine
ENCODING 186
SWIDTH 410 0
DWIDTH 9 0
BBX 7 7 1 9
BITMAP
30
7C
C6
C6
C4
7C
30
ENDCHAR
STARTCHAR guillemotright
ENCODING 187
SWIDTH 575 0
DWIDTH 12 0
BBX 9 10 2 0
BITMAP
8C00
CE00
6600
7300
3380
3380
7700
E600
CC00
8400
ENDCHAR
STARTCHAR onequarter
ENCODING 188
SWIDTH 967 0
DWIDTH 20 0
BBX 18 16 2 0
BITMAP
600800
E01800
201000
203000
206000
204000
20C080
208180
218180
210380
030780
060D80
040D80
0C1FC0
083FC0
180180
ENDCHAR
STARTCHAR onehalf
ENCODING 189
SWIDTH 967 0
DWIDTH 20 0
BBX 17 16 2 0
BITMAP
600800
E01800
201000
203000
206000
204000
20C600
209F80
219980
210080
030180
060300
040600
0C0600
080C00
181F80
ENDCHAR
STARTCHAR threequarters
ENCODING 190
SWIDTH 967 0
DWIDTH 20 0
BBX 19 16 1 0
BITMAP
780400
D80C00
8C0800
0C1800
383000
0C2000
0C6040
8C40C0
F8C0C0
7081C0
0183C0
0306C0
0206C0
060FE0
041FE0
0C00C0
ENDCHAR
STARTCHAR questiondown
ENCODING 191
SWIDTH 489 0
DWIDTH 10 0
BBX 8 16 1 -4
BITMAP
1C
18
00
08
3E
7E
67
07
1E
7C
70
E3
E3
67
7E
3C
ENDCHAR
STARTCHAR Agrave
ENCODING 192
SWIDTH 740 0
DWIDTH 16 0
BBX 15 21 0 0
BITMAP
0600
0700
0180
0080
0000
0180
0180
0380
03C0
07C0
06E0
0660
0E70
0C30
1C38
1FF8
3FF8
301C
700C
600E
E006
ENDCHAR
STARTCHAR Aacute
ENCODING 193
SWIDTH 740 0
DWIDTH 16 0
BBX 15 22 0 0
BITMAP
0040
0060
00E0
0180
0100
0000
0180
0180
0380
03C0
07C0
06E0
0660
0E70
0C30
1C38
1FF8
3FF8
301C
700C
600E
E006
ENDCHAR
STARTCHAR Acircumflex
ENCODING 194
SWIDTH 740 0
DWIDTH 16 0
BBX 15 21 0 0
BITMAP
0180
07C0
0E70
0000
0000
0180
0180
0380
03C0
07C0
06E0
0660
0E70
0C30
1C38
1FF8
3FF8
301C
700C
600E
E006
ENDCHAR
STARTCHAR Atilde
ENCODING 195
SWIDTH 740 0
DWIDTH 16 0
BBX 15 20 0 0
BITMAP
0FB0
0FF0
0040
0000
0180
0180
0380
03C0
07C0
06E0
0660
0E70
0C30
1C38
1FF8
3FF8
301C
700C
600E
E006
ENDCHAR
STARTCHAR Adieresis
ENCODING 196
SWIDTH 740 0
DWIDTH 16 0
BBX 15 20 0 0
BITMAP
0E70
0E70
0420
0000
0180
0180
0380
03C0
07C0
06E0
0660
0E70
0C30
1C38
1FF8
3FF8
301C
700C
600E
E006
ENDCHAR
STARTCHAR Aring
ENCODING 197
SWIDTH 740 0
DWIDTH 16 0
BBX 15 22 0 0
BITMAP
0180
03C0
0240
03C0
0180
0000
0180
0180
0380
03C0
07C0
06E0
0660
0E70
0C30
1C38
1FF8
3FF8
301C
700C
600E
E006
ENDCHAR
STARTCHAR AE
ENCODING 198
SWIDTH 1047 0
DWIDTH 22 0
BBX 22 16 0 0
BITMAP
00FE00
01FE00
01C000
03C000
03C000
07E000
067F80
0E7FC0
0C3FC0
1C3800
1FF800
3FF800
301C00
700C00
700FF8
E007FC
ENDCHAR
STARTCHAR Ccedilla
ENCODING 199
SWIDTH 700 0
DWIDTH 15 0
BBX 13 21 1 -5
BITMAP
07F0
1FF8
3C38
3808
7000
6000
E000
E000
E000
E000
E000
7000
7008
3C18
1FF8
07F0
0000
0100
0180
0300
0600
ENDCHAR
STARTCHAR Egrave
ENCODING 200
SWIDTH 565 0
DWIDTH 12 0
BBX 9 21 2 0
BITMAP
3000
3800
1C00
0400
0000
FF80
FF80
C000
C000
C000
C000
FF00
FF00
C000
C000
C000
C000
C000
C000
FF80
FF80
ENDCHAR
STARTCHAR Eacute
ENCODING 201
SWIDTH 565 0
DWIDTH 12 0
BBX 9 21 2 0
BITMAP
0600
0E00
1C00
1000
0000
FF80
FF80
C000
C000
C000
C000
FF00
FF00
C000
C000
C000
C000
C000
C000
FF80
FF80
ENDCHAR
STARTCHAR Ecircumflex
ENCODING 202
SWIDTH 565 0
DWIDTH 12 0
BBX 9 22 2 0
BITMAP
0800
1C00
3E00
7700
0200
0000
FF80
FF80
C000
C000
C000
C000
FF00
FF00
C000
C000
C000
C000
C000
C000
FF80
FF80
ENDCHAR
STARTCHAR Edieresis
ENCODING 203
SWIDTH 565 0
DWIDTH 12 0
BBX 9 20 2 0
BITMAP
6700
6700
2200
0000
FF80
FF80
C000
C000
C000
C000
FF00
FF00
C000
C000
C000
C000
C000
C000
FF80
FF80
ENDCHAR
STARTCHAR Igrave
ENCODING 204
SWIDTH 294 0
DWIDTH 6 0
BBX 4 21 0 0
BITMAP
C0
E0
70
00
00
30
30
30
30
30
30
30
30
30
30
30
30
30
30
30
30
ENDCHAR
STARTCHAR Iacute
ENCODING 205
SWIDTH 294 0
DWIDTH 6 0
BBX 4 21 2 0
BITMAP
30
70
E0
00
00
C0
C0
C0
C0
C0
C0
C0
C0
C0
C0
C0
C0
C0
C0
C0
C0
ENDCHAR
STARTCHAR Icircumflex
ENCODING 206
SWIDTH 294 0
DWIDTH 6 0
BBX 7 21 0 0
BITMAP
30
7C
CE
00
00
30
30
30
30
30
30
30
30
30
30
30
30
30
30
30
30
ENDCHAR
STARTCHAR Idieresis
ENCODING 207
SWIDTH 294 0
DWIDTH 6 0
BBX 6 20 0 0
BITMAP
CC
EC
44
00
30
30
30
30
30
30
30
30
30
30
30
30
30
30
30
30
ENDCHAR
STARTCHAR Eth
ENCODING 208
SWIDTH 726 0
DWIDTH 15 0
BBX 14 16 0 0
BITMAP
3F80
3FE0
31F0
3038
3018
301C
300C
FF0C
FF0C
300C
301C
3018
3038
30F0
3FE0
3F80
ENDCHAR
STARTCHAR Ntilde
ENCODING 209
SWIDTH 844 0
DWIDTH 18 0
BBX 14 21 2 -1
BITMAP
1F60
1FC0
0080
0000
801C
C01C
E01C
F01C
F81C
DC1C
CE1C
C71C
C39C
C1DC
C0FC
C07C
C03C
C01C
C01C
C00C
0004
ENDCHAR
STARTCHAR Ograve
ENCODING 210
SWIDTH 893 0
DWIDTH 19 0
BBX 17 21 1 0
BITMAP
030000
038000
01C000
000000
000000
07F000
1FF800
3C1C00
380E00
700700
E00300
E00380
E00380
E00380
E00380
E00300
700700
700E00
3C1E00
1FFC00
07F000
ENDCHAR
STARTCHAR Oacute
ENCODING 211
SWIDTH 893 0
DWIDTH 19 0
BBX 17 21 1 0
BITMAP
006000
00E000
01C000
000000
000000
07F000
1FF800
3C1C00
380E00
700700
E00300
E00380
E00380
E00380
E00380
E00300
700700
700E00
3C1E00
1FFC00
07F000
ENDCHAR
STARTCHAR Ocircumflex
ENCODING 212
SWIDTH 893 0
DWIDTH 19 0
BBX 17 22 1 0
BITMAP
008000
01C000
03E000
077000
022000
000000
07F000
1FF800
3C1C00
380E00
700700
E00300
E00380
E00380
E00380
E00380
E00300
700700
700E00
3C1E00
1FFC00
07F000
ENDCHAR
STARTCHAR Otilde
ENCODING 213
SWIDTH 893 0
DWIDTH 19 0
BBX 17 20 1 0
BITMAP
07B000
0FF000
004000
000000
07F000
1FF800
3C1C00
380E00
700700
E00300
E00380
E00380
E00380
E00380
E00300
700700
700E00
3C1E00
1FFC00
07F000
ENDCHAR
STARTCHAR Odieresis
ENCODING 214
SWIDTH 893 0
DWIDTH 19 0
BBX 17 20 1 0
BITMAP
067000
077000
022000
000000
07F000
1FF800
3C1C00
380E00
700700
E00300
E00380
E00380
E00380
E00380
E00300
700700
700E00
3C1E00
1FFC00
07F000
ENDCHAR
STARTCHAR multiply
ENCODING 215
SWIDTH 617 0
DWIDTH 13 0
BBX 9 9 2 4
BITMAP
4100
E380
7700
3E00
1C00
3E00
7700
E380
C180
ENDCHAR
STARTCHAR Oslash
ENCODING 216
SWIDTH 892 0
DWIDTH 19 0
BBX 17 16 1 0
BITMAP
07F300
1FFF00
3C1E00
381E00
703F00
607300
E0E300
E1C380
E38380
E70380
EE0300
7C0700
780E00
7C1E00
FFFC00
47F000
ENDCHAR
STARTCHAR Ugrave
ENCODING 217
SWIDTH 738 0
DWIDTH 16 0
BBX 12 21 2 0
BITMAP
1800
1C00
0600
0200
0000
C070
C070
C070
C070
C070
C070
C070
C070
C070
C070
C070
C070
E060
70E0
7FC0
1F80
ENDCHAR
STARTCHAR Uacute
ENCODING 218
SWIDTH 738 0
DWIDTH 16 0
BBX 12 21 2 0
BITMAP
0380
0780
0E00
0400
0000
C070
C070
C070
C070
C070
C070
C070
C070
C070
C070
C070
C070
E060
70E0
7FC0
1F80
ENDCHAR
STARTCHAR Ucircumflex
ENCODING 219
SWIDTH 738 0
DWIDTH 16 0
BBX 12 22 2 0
BITMAP
0400
0E00
1F00
3B80
1000
0000
C070
C070
C070
C070
C070
C070
C070
C070
C070
C070
C070
C070
E060
70E0
7FC0
1F80
ENDCHAR
STARTCHAR Udieresis
ENCODING 220
SWIDTH 738 0
DWIDTH 16 0
BBX 12 20 2 0
BITMAP
3980
3980
1080
0000
C070
C070
C070
C070
C070
C070
C070
C070
C070
C070
C070
C070
E060
70E0
7FC0
1F80
ENDCHAR
STARTCHAR Yacute
ENCODING 221
SWIDTH 600 0
DWIDTH 13 0
BBX 12 21 0 0
BITMAP
01C0
03C0
0700
0200
0000
E030
6070
7060
38E0
39C0
1DC0
0F80
0F00
0700
0600
0600
0600
0600
0600
0600
0600
ENDCHAR
STARTCHAR Thorn
ENCODING 222
SWIDTH 540 0
DWIDTH 11 0
BBX 9 16 2 0
BITMAP
C000
C000
F800
FE00
FF00
C380
C380
C380
C380
CF00
FE00
F800
C000
C000
C000
C000
ENDCHAR
STARTCHAR germandbls
ENCODING 223
SWIDTH 622 0
DWIDTH 13 0
BBX 11 18 1 0
BITMAP
0C00
3F00
7F80
61C0
60C0
E1C0
E1C0
E780
E780
E3C0
E0E0
E060
E060
E060
E0E0
E1C0
E7C0
E700
ENDCHAR
STARTCHAR agrave
ENCODING 224
SWIDTH 599 0
DWIDTH 13 0
BBX 10 16 1 0
BITMAP
1800
3800
0C00
0600
0000
0000
3EC0
7FC0
E1C0
E0C0
C0C0
C0C0
E0C0
E1C0
7FC0
3EC0
ENDCHAR
STARTCHAR aacute
ENCODING 225
SWIDTH 599 0
DWIDTH 13 0
BBX 10 16 1 0
BITMAP
0300
0700
0600
0C00
0000
0000
3EC0
7FC0
E1C0
E0C0
C0C0
C0C0
E0C0
E1C0
7FC0
3EC0
ENDCHAR
STARTCHAR acircumflex
ENCODING 226
SWIDTH 599 0
DWIDTH 13 0
BBX 10 16 1 0
BITMAP
0400
0E00
1F00
3380
0000
0000
3EC0
7FC0
E1C0
E0C0
C0C0
C0C0
E0C0
E1C0
7FC0
3EC0
ENDCHAR
STARTCHAR atilde
ENCODING 227
SWIDTH 599 0
DWIDTH 13 0
BBX 10 15 1 0
BITMAP
1880
3FC0
2780
0000
0000
3EC0
7FC0
E1C0
E0C0
C0C0
C0C0
E0C0
E1C0
7FC0
3EC0
ENDCHAR
STARTCHAR adieresis
ENCODING 228
SWIDTH 599 0
DWIDTH 13 0
BBX 10 15 1 0
BITMAP
1100
3B80
3B80
0000
0000
3EC0
7FC0
E1C0
E0C0
C0C0
C0C0
E0C0
E1C0
7FC0
3EC0
ENDCHAR
STARTCHAR aring
ENCODING 229
SWIDTH 599 0
DWIDTH 13 0
BBX 10 16 1 0
BITMAP
0E00
1A00
1300
0E00
0000
0000
3EC0
7FC0
E1C0
E0C0
C0C0
C0C0
E0C0
E1C0
7FC0
3EC0
ENDCHAR
STARTCHAR ae
ENCODING 230
SWIDTH 860 0
DWIDTH 18 0
BBX 16 10 1 0
BITMAP
7E7C
7FFE
03C7
0383
7FFF
FFFF
C382
C3C7
FFFE
7E7C
ENDCHAR
STARTCHAR ccedilla
ENCODING 231
SWIDTH 476 0
DWIDTH 10 0
BBX 8 15 1 -5
BITMAP
1F
7F
61
E0
C0
C0
E0
61
7F
3F
00
08
0C
18
10
ENDCHAR
STARTCHAR egrave
ENCODING 232
SWIDTH 553 0
DWIDTH 12 0
BBX 10 16 1 0
BITMAP
1000
3800
1C00
0C00
0000
0000
3F00
7F80
E180
E180
FFC0
FFC0
E000
E1C0
7F80
3F00
ENDCHAR
STARTCHAR eacute
ENCODING 233
SWIDTH 553 0
DWIDTH 12 0
BBX 10 16 1 0
BITMAP
0200
0700
0E00
1C00
0000
0000
3F00
7F80
E180
E180
FFC0
FFC0
E000
E1C0
7F80
3F00
ENDCHAR
STARTCHAR ecircumflex
ENCODING 234
SWIDTH 553 0
DWIDTH 12 0
BBX 10 16 1 0
BITMAP
0800
1E00
3F00
3300
0000
0000
3F00
7F80
E180
E180
FFC0
FFC0
E000
E1C0
7F80
3F00
ENDCHAR
STARTCHAR edieresis
ENCODING 235
SWIDTH 553 0
DWIDTH 12 0
BBX 10 15 1 0
BITMAP
2300
7300
7300
0000
0000
3F00
7F80
E180
E180
FFC0
FFC0
E000
E1C0
7F80
3F00
ENDCHAR
STARTCHAR igrave
ENCODING 236
SWIDTH 249 0
DWIDTH 5 0
BBX 5 16 -1 0
BITMAP
40
E0
70
38
00
00
38
38
38
38
38
38
38
38
38
38
ENDCHAR
STARTCHAR iacute
ENCODING 237
SWIDTH 249 0
DWIDTH 5 0
BBX 5 16 1 0
BITMAP
10
38
70
60
00
00
E0
E0
E0
E0
E0
E0
E0
E0
E0
E0
ENDCHAR
STARTCHAR icircumflex
ENCODING 238
SWIDTH 249 0
DWIDTH 5 0
BBX 7 16 -1 0
BITMAP
10
38
7C
E6
00
00
38
38
38
38
38
38
38
38
38
38
ENDCHAR
STARTCHAR idieresis
ENCODING 239
SWIDTH 249 0
DWIDTH 5 0
BBX 7 15 -1 0
BITMAP
44
EE
EE
00
00
38
38
38
38
38
38
38
38
38
38
ENDCHAR
STARTCHAR eth
ENCODING 240
SWIDTH 601 0
DWIDTH 13 0
BBX 11 17 1 0
BITMAP
6200
3E00
3C00
7E00
0700
0380
0180
1FC0
7FC0
61C0
E0E0
C0E0
C0E0
E0C0
61C0
7F80
3F00
ENDCHAR
STARTCHAR ntilde
ENCODING 241
SWIDTH 548 0
DWIDTH 12 0
BBX 9 15 1 0
BITMAP
3100
7F80
4F00
0000
0000
FF00
FF80
E380
E180
E180
E180
E180
E180
E180
E180
ENDCHAR
STARTCHAR ograve
ENCODING 242
SWIDTH 601 0
DWIDTH 13 0
BBX 11 16 1 0
BITMAP
1800
3800
0C00
0600
0000
0000
3F00
7F80
61C0
E0C0
C0E0
C0E0
E0C0
61C0
7F80
3F00
ENDCHAR
STARTCHAR oacute
ENCODING 243
SWIDTH 601 0
DWIDTH 13 0
BBX 11 16 1 0
BITMAP
0300
0700
0600
0C00
0000
0000
3F00
7F80
61C0
E0C0
C0E0
C0E0
E0C0
61C0
7F80
3F00
ENDCHAR
STARTCHAR ocircumflex
ENCODING 244
SWIDTH 601 0
DWIDTH 13 0
BBX 11 16 1 0
BITMAP
0400
0E00
1F00
3380
0000
0000
3F00
7F80
61C0
E0C0
C0E0
C0E0
E0C0
61C0
7F80
3F00
ENDCHAR
STARTCHAR otilde
ENCODING 245
SWIDTH 601 0
DWIDTH 13 0
BBX 11 15 1 0
BITMAP
1880
3FC0
2780
0000
0000
3F00
7F80
61C0
E0C0
C0E0
C0E0
E0C0
61C0
7F80
3F00
ENDCHAR
STARTCHAR odieresis
ENCODING 246
SWIDTH 601 0
DWIDTH 13 0
BBX 11 15 1 0
BITMAP
1100
3B80
3380
0000
0000
3F00
7F80
61C0
E0C0
C0E0
C0E0
E0C0
61C0
7F80
3F00
ENDCHAR
STARTCHAR divide
ENCODING 247
SWIDTH 617 0
DWIDTH 13 0
BBX 11 10 1 3
BITMAP
0E00
0E00
0400
0000
FFE0
FFE0
0000
0E00
0E00
0400
ENDCHAR
STARTCHAR oslash
ENCODING 248
SWIDTH 601 0
DWIDTH 13 0
BBX 11 11 1 -1
BITMAP
1F60
7FC0
71C0
E3C0
C6E0
CCE0
F8C0
71C0
7F80
FF00
8000
ENDCHAR
STARTCHAR ugrave
ENCODING 249
SWIDTH 544 0
DWIDTH 11 0
BBX 9 16 1 0
BITMAP
3000
3800
1800
0C00
0000
0000
E180
E180
E180
E180
E180
E180
E180
6380
7F00
3E00
ENDCHAR
STARTCHAR uacute
ENCODING 250
SWIDTH 544 0
DWIDTH 11 0
BBX 9 16 1 0
BITMAP
0200
0700
0E00
0C00
0000
0000
E180
E180
E180
E180
E180
E180
E180
6380
7F00
3E00
ENDCHAR
STARTCHAR ucircumflex
ENCODING 251
SWIDTH 544 0
DWIDTH 11 0
BBX 9 16 1 0
BITMAP
0800
1C00
3F00
7300
0000
0000
E180
E180
E180
E180
E180
E180
E180
6380
7F00
3E00
ENDCHAR
STARTCHAR udieresis
ENCODING 252
SWIDTH 544 0
DWIDTH 11 0
BBX 9 15 1 0
BITMAP
2200
7700
7300
0000
0000
E180
E180
E180
E180
E180
E180
E180
6380
7F00
3E00
ENDCHAR
STARTCHAR yacute
ENCODING 253
SWIDTH 543 0
DWIDTH 11 0
BBX 11 21 0 -5
BITMAP
0100
0380
0300
0600
0000
0000
E0E0
70E0
71C0
39C0
1B80
1F00
0F00
0E00
0E00
0C00
1C00
1800
3800
3000
7000
ENDCHAR
STARTCHAR thorn
ENCODING 254
SWIDTH 599 0
DWIDTH 13 0
BBX 11 22 1 -5
BITMAP
E000
E000
E000
E000
E000
E000
E000
FF00
FF80
F1C0
E0C0
E0E0
E0E0
E0C0
F1C0
FFC0
FF00
E000
E000
E000
E000
E000
ENDCHAR
STARTCHAR ydieresis
ENCODING 255
SWIDTH 543 0
DWIDTH 11 0
BBX 11 20 0 -5
BITMAP
1100
3B80
3980
0000
0000
E0E0
70E0
71C0
39C0
1B80
1F00
0F00
0E00
0E00
0C00
1C00
1800
3800
3000
7000
ENDCHAR
STARTCHAR Amacron
ENCODING 256
SWIDTH 740 0
DWIDTH 16 0
BBX 15 20 0 0
BITMAP
0FE0
0FE0
0000
0000
0180
0180
0380
03C0
07C0
06E0
0660
0E70
0C30
1C38
1FF8
3FF8
301C
700C
600E
E006
ENDCHAR
STARTCHAR amacron
ENCODING 257
SWIDTH 599 0
DWIDTH 13 0
BBX 10 14 1 0
BITMAP
3F80
3F80
0000
0000
3EC0
7FC0
E1C0
E0C0
C0C0
C0C0
E0C0
E1C0
7FC0
3EC0
ENDCHAR
STARTCHAR Abreve
ENCODING 258
SWIDTH 740 0
DWIDTH 16 0
BBX 15 21 0 0
BITMAP
0C30
0E60
07E0
0180
0000
0180
0180
0380
03C0
07C0
06E0
0660
0E70
0C30
1C38
1FF8
3FF8
301C
700C
600E
E006
ENDCHAR
STARTCHAR abreve
ENCODING 259
SWIDTH 599 0
DWIDTH 13 0
BBX 10 15 1 0
BITMAP
3180
3B80
1F00
0000
0000
3EC0
7FC0
E1C0
E0C0
C0C0
C0C0
E0C0
E1C0
7FC0
3EC0
ENDCHAR
STARTCHAR Aogonek
ENCODING 260
SWIDTH 740 0
DWIDTH 16 0
BBX 15 21 0 -5
BITMAP
0180
0180
0380
03C0
07C0
06E0
0660
0E70
0C30
1C38
1FF8
3FF8
301C
700C
600E
E006
000C
0018
0018
001E
000E
ENDCHAR
STARTCHAR aogonek
ENCODING 261
SWIDTH 599 0
DWIDTH 13 0
BBX 10 15 1 -5
BITMAP
3EC0
7FC0
E1C0
E0C0
C0C0
C0C0
E0C0
E1C0
7FC0
3EC0
0180
0300
0300
03C0
03C0
ENDCHAR
STARTCHAR Cacute
ENCODING 262
SWIDTH 700 0
DWIDTH 15 0
BBX 13 22 1 0
BITMAP
0040
00E0
01E0
0380
0100
0000
07F0
1FF8
3C38
3808
7000
6000
E000
E000
E000
E000
E000
7000
7008
3C18
1FF8
07F0
ENDCHAR
STARTCHAR cacute
ENCODING 263
SWIDTH 476 0
DWIDTH 10 0
BBX 8 16 1 0
BITMAP
02
07
0E
1C
00
00
1F
7F
61
E0
C0
C0
E0
61
7F
3F
ENDCHAR
STARTCHAR Ccircumflex
ENCODING 264
SWIDTH 700 0
DWIDTH 15 0
BBX 13 22 1 0
BITMAP
0100
03C0
07E0
0660
0000
0000
07F0
1FF8
3C38
3808
7000
6000
E000
E000
E000
E000
E000
7000
7008
3C18
1FF8
07F0
ENDCHAR
STARTCHAR ccircumflex
ENCODING 265
SWIDTH 476 0
DWIDTH 10 0
BBX 8 16 1 0
BITMAP
0C
1E
3F
33
00
00
1F
7F
61
E0
C0
C0
E0
61
7F
3F
ENDCHAR
STARTCHAR Cdotaccent
ENCODING 266
SWIDTH 700 0
DWIDTH 15 0
BBX 13 21 1 0
BITMAP
0180
01C0
01C0
0000
0000
07F0
1FF8
3C38
3808
7000
6000
E000
E000
E000
E000
E000
7000
7008
3C18
1FF8
07F0
ENDCHAR
STARTCHAR cdotaccent
ENCODING 267
SWIDTH 476 0
DWIDTH 10 0
BBX 8 15 1 0
BITMAP
0C
1C
0C
00
00
1F
7F
61
E0
C0
C0
E0
61
7F
3F
ENDCHAR
STARTCHAR Ccaron
ENCODING 268
SWIDTH 700 0
DWIDTH 15 0
BBX 13 21 1 0
BITMAP
0670
03E0
0180
0000
0000
07F0
1FF8
3C38
3808
7000
6000
E000
E000
E000
E000
E000
7000
7008
3C18
1FF8
07F0
ENDCHAR
STARTCHAR ccaron
ENCODING 269
SWIDTH 476 0
DWIDTH 10 0
BBX 8 16 1 0
BITMAP
23
37
1E
0C
00
00
1F
7F
61
E0
C0
C0
E0
61
7F
3F
ENDCHAR
STARTCHAR Dcaron
ENCODING 270
SWIDTH 726 0
DWIDTH 15 0
BBX 12 22 2 0
BITMAP
0200
7700
3E00
1C00
0800
0000
FE00
FF80
C7C0
C0E0
C060
C070
C030
C030
C030
C030
C070
C060
C0E0
C3C0
FF80
FE00
ENDCHAR
STARTCHAR dcaron
ENCODING 271
SWIDTH 708 0
DWIDTH 15 0
BBX 14 17 1 0
BITMAP
00C0
00DC
00DC
00DC
00CC
00C8
00C0
3EC0
7FC0
E1C0
E0C0
C0C0
C0C0
E0C0
E1C0
7FC0
3EC0
ENDCHAR
STARTCHAR Dcroat
ENCODING 272
SWIDTH 726 0
DWIDTH 15 0
BBX 14 16 0 0
BITMAP
3F80
3FE0
31F0
3038
3018
301C
300C
FF0C
FF0C
300C
301C
3018
3038
30F0
3FE0
3F80
ENDCHAR
STARTCHAR dcroat
ENCODING 273
SWIDTH 599 0
DWIDTH 13 0
BBX 12 17 1 0
BITMAP
00C0
00C0
00C0
07F0
07F0
00C0
00C0
3EC0
7FC0
E1C0
E0C0
C0C0
C0C0
E0C0
E1C0
7FC0
3EC0
ENDCHAR
STARTCHAR Emacron
ENCODING 274
SWIDTH 565 0
DWIDTH 12 0
BBX 9 20 2 0
BITMAP
FF00
FF00
0000
0000
FF80
FF80
C000
C000
C000
C000
FF00
FF00
C000
C000
C000
C000
C000
C000
FF80
FF80
ENDCHAR
STARTCHAR emacron
ENCODING 275
SWIDTH 553 0
DWIDTH 12 0
BBX 10 14 1 0
BITMAP
7F00
7F00
0000
0000
3F00
7F80
E180
E180
FFC0
FFC0
E000
E1C0
7F80
3F00
ENDCHAR
STARTCHAR Ebreve
ENCODING 276
SWIDTH 565 0
DWIDTH 12 0
BBX 9 21 2 0
BITMAP
6300
6700
3E00
0000
0000
FF80
FF80
C000
C000
C000
C000
FF00
FF00
C000
C000
C000
C000
C000
C000
FF80
FF80
ENDCHAR
STARTCHAR ebreve
ENCODING 277
SWIDTH 553 0
DWIDTH 12 0
BBX 10 15 1 0
BITMAP
6180
3300
3F00
0000
0000
3F00
7F80
E180
E180
FFC0
FFC0
E000
E1C0
7F80
3F00
ENDCHAR
STARTCHAR Edotaccent
ENCODING 278
SWIDTH 565 0
DWIDTH 12 0
BBX 9 20 2 0
BITMAP
1C00
1C00
0800
0000
FF80
FF80
C000
C000
C000
C000
FF00
FF00
C000
C000
C000
C000
C000
C000
FF80
FF80
ENDCHAR
STARTCHAR edotaccent
ENCODING 279
SWIDTH 553 0
DWIDTH 12 0
BBX 10 15 1 0
BITMAP
0C00
1C00
0C00
0000
0000
3F00
7F80
E180
E180
FFC0
FFC0
E000
E1C0
7F80
3F00
ENDCHAR
STARTCHAR Eogonek
ENCODING 280
SWIDTH 565 0
DWIDTH 12 0
BBX 9 21 2 -5
BITMAP
FF80
FF80
C000
C000
C000
C000
FF00
FF00
C000
C000
C000
C000
C000
C000
FF80
FF80
0300
0600
0600
0780
0780
ENDCHAR
STARTCHAR eogonek
ENCODING 281
SWIDTH 553 0
DWIDTH 12 0
BBX 10 15 1 -5
BITMAP
3F00
7F80
E180
E180
FFC0
FFC0
E000
E1C0
7F80
3F00
0C00
1800
1800
1E00
1E00
ENDCHAR
STARTCHAR Ecaron
ENCODING 282
SWIDTH 565 0
DWIDTH 12 0
BBX 9 22 2 0
BITMAP
0200
6700
3E00
1C00
0000
0000
FF80
FF80
C000
C000
C000
C000
FF00
FF00
C000
C000
C000
C000
C000
C000
FF80
FF80
ENDCHAR
STARTCHAR ecaron
ENCODING 283
SWIDTH 553 0
DWIDTH 12 0
BBX 10 16 1 0
BITMAP
2300
3F00
1E00
0C00
0000
0000
3F00
7F80
E180
E180
FFC0
FFC0
E000
E1C0
7F80
3F00
ENDCHAR
STARTCHAR Gcircumflex
ENCODING 284
SWIDTH 842 0
DWIDTH 18 0
BBX 16 22 1 0
BITMAP
0080
01C0
03E0
0670
0000
0000
07F0
1FF8
3C3C
780C
7000
6000
E000
E000
E07F
E07F
E006
7006
700E
3C1C
1FF8
07F0
ENDCHAR
STARTCHAR gcircumflex
ENCODING 285
SWIDTH 598 0
DWIDTH 13 0
BBX 10 21 1 -5
BITMAP
0C00
1E00
3F00
3300
0000
0000
3EC0
7FC0
61C0
E0C0
C0C0
C0C0
E0C0
E1C0
7FC0
3EC0
00C0
E0C0
61C0
7F80
3F00
ENDCHAR
STARTCHAR Gbreve
ENCODING 286
SWIDTH 842 0
DWIDTH 18 0
BBX 16 21 1 0
BITMAP
0430
0670
07E0
0180
0000
07F0
1FF8
3C3C
780C
7000
6000
E000
E000
E07F
E07F
E006
7006
700E
3C1C
1FF8
07F0
ENDCHAR
STARTCHAR gbreve
ENCODING 287
SWIDTH 598 0
DWIDTH 13 0
BBX 10 20 1 -5
BITMAP
3180
3380
1F00
0000
0000
3EC0
7FC0
61C0
E0C0
C0C0
C0C0
E0C0
E1C0
7FC0
3EC0
00C0
E0C0
61C0
7F80
3F00
ENDCHAR
STARTCHAR Gdotaccent
ENCODING 288
SWIDTH 842 0
DWIDTH 18 0
BBX 16 21 1 0
BITMAP
0180
01C0
01C0
0000
0000
07F0
1FF8
3C3C
780C
7000
6000
E000
E000
E07F
E07F
E006
7006
700E
3C1C
1FF8
07F0
ENDCHAR
STARTCHAR gdotaccent
ENCODING 289
SWIDTH 598 0
DWIDTH 13 0
BBX 10 20 1 -5
BITMAP
0C00
1C00
0C00
0000
0000
3EC0
7FC0
61C0
E0C0
C0C0
C0C0
E0C0
E1C0
7FC0
3EC0
00C0
E0C0
61C0
7F80
3F00
ENDCHAR
STARTCHAR Gcedilla
ENCODING 290
SWIDTH 842 0
DWIDTH 18 0
BBX 16 22 1 -6
BITMAP
07F0
1FF8
3C3C
780C
7000
6000
E000
E000
E07F
E07F
E006
7006
700E
3C1C
1FF8
07F0
0000
01C0
01C0
01C0
00C0
0180
ENDCHAR
STARTCHAR gcedilla
ENCODING 291
SWIDTH 598 0
DWIDTH 13 0
BBX 10 21 1 -5
BITMAP
0C00
0C00
0C00
0C00
0000
0000
3EC0
7FC0
61C0
E0C0
C0C0
C0C0
E0C0
E1C0
7FC0
3EC0
00C0
E0C0
61C0
7F80
3F00
ENDCHAR
STARTCHAR Hcircumflex
ENCODING 292
SWIDTH 733 0
DWIDTH 15 0
BBX 12 22 2 0
BITMAP
0400
0F00
1F80
1980
0000
0000
C070
C070
C070
C070
C070
C070
FFF0
FFF0
FFF0
C070
C070
C070
C070
C070
C070
C070
ENDCHAR
STARTCHAR hcircumflex
ENCODING 293
SWIDTH 548 0
DWIDTH 12 0
BBX 11 22 -1 0
BITMAP
1000
3800
7C00
E600
0000
3800
3800
3800
3800
3800
3800
3800
3FC0
3FE0
38E0
3860
3860
3860
3860
3860
3860
3860
ENDCHAR
STARTCHAR Hbar
ENCODING 294
SWIDTH 848 0
DWIDTH 18 0
BBX 18 16 0 0
BITMAP
180E00
180E00
FFFFC0
FFFFC0
180E00
180E00
1FFE00
1FFE00
1FFE00
180E00
180E00
180E00
180E00
180E00
180E00
180E00
ENDCHAR
STARTCHAR hbar
ENCODING 295
SWIDTH 548 0
DWIDTH 12 0
BBX 10 17 0 0
BITMAP
7000
7000
7000
F800
F800
7000
7000
7F80
7FC0
71C0
70C0
70C0
70C0
70C0
70C0
70C0
70C0
ENDCHAR
STARTCHAR Itilde
ENCODING 296
SWIDTH 403 0
DWIDTH 8 0
BBX 8 21 0 0
BITMAP
30
7F
DF
00
00
18
18
18
18
18
18
18
18
18
18
18
18
18
18
18
18
ENDCHAR
STARTCHAR itilde
ENCODING 297
SWIDTH 396 0
DWIDTH 8 0
BBX 8 15 0 0
BITMAP
30
FF
DF
00
00
18
18
18
18
18
18
18
18
18
18
ENDCHAR
STARTCHAR Imacron
ENCODING 298
SWIDTH 294 0
DWIDTH 6 0
BBX 6 20 0 0
BITMAP
FC
FC
00
00
30
30
30
30
30
30
30
30
30
30
30
30
30
30
30
30
ENDCHAR
STARTCHAR imacron
ENCODING 299
SWIDTH 249 0
DWIDTH 5 0
BBX 5 14 0 0
BITMAP
F8
F8
00
00
70
70
70
70
70
70
70
70
70
70
ENDCHAR
STARTCHAR Ibreve
ENCODING 300
SWIDTH 352 0
DWIDTH 7 0
BBX 7 21 0 0
BITMAP
C6
EE
7C
00
00
18
18
18
18
18
18
18
18
18
18
18
18
18
18
18
18
ENDCHAR
STARTCHAR ibreve
ENCODING 301
SWIDTH 349 0
DWIDTH 7 0
BBX 7 15 0 0
BITMAP
C6
EE
7C
00
00
38
38
38
38
38
38
38
38
38
38
ENDCHAR
STARTCHAR Iogonek
ENCODING 302
SWIDTH 294 0
DWIDTH 6 0
BBX 4 21 0 -5
BITMAP
30
30
30
30
30
30
30
30
30
30
30
30
30
30
30
30
60
C0
C0
F0
70
ENDCHAR
STARTCHAR iogonek
ENCODING 303
SWIDTH 249 0
DWIDTH 5 0
BBX 5 21 -1 -5
BITMAP
10
38
38
00
00
00
38
38
38
38
38
38
38
38
38
38
30
60
E0
F8
78
ENDCHAR
STARTCHAR Idotaccent
ENCODING 304
SWIDTH 294 0
DWIDTH 6 0
BBX 3 20 2 0
BITMAP
E0
E0
40
00
C0
C0
C0
C0
C0
C0
C0
C0
C0
C0
C0
C0
C0
C0
C0
C0
ENDCHAR
STARTCHAR dotlessi
ENCODING 305
SWIDTH 249 0
DWIDTH 5 0
BBX 3 10 1 0
BITMAP
E0
E0
E0
E0
E0
E0
E0
E0
E0
E0
ENDCHAR
STARTCHAR IJ
ENCODING 306
SWIDTH 722 0
DWIDTH 15 0
BBX 11 16 2 0
BITMAP
C060
C060
C060
C060
C060
C060
C060
C060
C060
C060
C060
C060
C060
C0E0
C7E0
CFC0
ENDCHAR
STARTCHAR ij
ENCODING 307
SWIDTH 515 0
DWIDTH 11 0
BBX 8 21 1 -5
BITMAP
42
E7
E7
00
00
00
E7
E7
E7
E7
E7
E7
E7
E7
E7
E7
07
07
07
07
07
ENDCHAR
STARTCHAR Jcircumflex
ENCODING 308
SWIDTH 454 0
DWIDTH 10 0
BBX 9 22 0 0
BITMAP
0400
0F00
1F80
1980
0000
0000
0E00
0E00
0E00
0E00
0E00
0E00
0E00
0E00
0E00
0E00
0E00
0E00
0E00
0C00
FC00
F800
ENDCHAR
STARTCHAR jcircumflex
ENCODING 309
SWIDTH 342 0
DWIDTH 7 0
BBX 7 20 0 -4
BITMAP
10
38
7C
E6
00
00
00
38
38
38
38
38
38
38
38
38
38
38
38
38
ENDCHAR
STARTCHAR Kcedilla
ENCODING 310
SWIDTH 662 0
DWIDTH 14 0
BBX 11 22 2 -6
BITMAP
C0E0
C1C0
C380
C700
CE00
DC00
F800
F800
F800
DC00
CE00
C700
C380
C3C0
C1C0
C0E0
0000
1C00
1C00
1C00
0C00
0800
ENDCHAR
STARTCHAR kcedilla
ENCODING 311
SWIDTH 498 0
DWIDTH 10 0
BBX 9 23 1 -6
BITMAP
E000
E000
E000
E000
E000
E000
E000
E380
E700
EE00
F800
F800
FC00
EE00
EE00
E700
E380
0000
1800
1800
1800
0800
1800
ENDCHAR
STARTCHAR kgreenlandic
ENCODING 312
SWIDTH 498 0
DWIDTH 10 0
BBX 9 10 1 0
BITMAP
E380
E700
EE00
F800
F800
FC00
EE00
EE00
E700
E380
ENDCHAR
STARTCHAR Lacute
ENCODING 313
SWIDTH 443 0
DWIDTH 9 0
BBX 7 21 2 0
BITMAP
18
38
60
40
00
C0
C0
C0
C0
C0
C0
C0
C0
C0
C0
C0
C0
C0
C0
FE
FE
ENDCHAR
STARTCHAR lacute
ENCODING 314
SWIDTH 249 0
DWIDTH 5 0
BBX 4 22 1 0
BITMAP
30
70
C0
80
00
E0
E0
E0
E0
E0
E0
E0
E0
E0
E0
E0
E0
E0
E0
E0
E0
E0
ENDCHAR
STARTCHAR Lcedilla
ENCODING 315
SWIDTH 443 0
DWIDTH 9 0
BBX 7 22 2 -6
BITMAP
C0
C0
C0
C0
C0
C0
C0
C0
C0
C0
C0
C0
C0
C0
FE
FE
00
30
30
30
10
30
ENDCHAR
STARTCHAR lcedilla
ENCODING 316
SWIDTH 249 0
DWIDTH 5 0
BBX 3 23 1 -6
BITMAP
E0
E0
E0
E0
E0
E0
E0
E0
E0
E0
E0
E0
E0
E0
E0
E0
E0
00
E0
E0
E0
60
40
ENDCHAR
STARTCHAR Lcaron
ENCODING 317
SWIDTH 443 0
DWIDTH 9 0
BBX 7 16 2 0
BITMAP
CC
CC
CC
C4
CC
C0
C0
C0
C0
C0
C0
C0
C0
C0
FE
FE
ENDCHAR
STARTCHAR lcaron
ENCODING 318
SWIDTH 356 0
DWIDTH 8 0
BBX 6 17 1 0
BITMAP
E0
EC
EC
EC
E4
EC
E0
E0
E0
E0
E0
E0
E0
E0
E0
E0
E0
ENDCHAR
STARTCHAR Ldotaccent
ENCODING 319
SWIDTH 443 0
DWIDTH 9 0
BBX 7 16 2 0
BITMAP
C0
C6
CE
CE
C0
C0
C0
C0
C0
C0
C0
C0
C0
C0
FE
FE
ENDCHAR
STARTCHAR ldotaccent
ENCODING 320
SWIDTH 468 0
DWIDTH 10 0
BBX 8 17 1 0
BITMAP
E0
E0
E6
EF
E6
E0
E0
E0
E0
E0
E0
E0
E0
E0
E0
E0
E0
ENDCHAR
STARTCHAR Lslash
ENCODING 321
SWIDTH 443 0
DWIDTH 9 0
BBX 9 16 0 0
BITMAP
3000
3000
3000
3000
3000
3600
3E00
3C00
F000
F000
B000
3000
3000
3000
3F80
3F80
ENDCHAR
STARTCHAR lslash
ENCODING 322
SWIDTH 298 0
DWIDTH 6 0
BBX 6 17 0 0
BITMAP
30
30
30
30
30
30
34
3C
78
F0
F0
30
30
30
30
30
30
ENDCHAR
STARTCHAR Nacute
ENCODING 323
SWIDTH 844 0
DWIDTH 18 0
BBX 14 22 2 -1
BITMAP
01C0
0380
0700
0000
0000
801C
C01C
E01C
F01C
F81C
DC1C
CE1C
C71C
C39C
C1DC
C0FC
C07C
C03C
C01C
C01C
C00C
0004
ENDCHAR
STARTCHAR nacute
ENCODING 324
SWIDTH 548 0
DWIDTH 12 0
BBX 9 16 1 0
BITMAP
0200
0700
0E00
1C00
0000
0000
FF00
FF80
E380
E180
E180
E180
E180
E180
E180
E180
ENDCHAR
STARTCHAR Ncedilla
ENCODING 325
SWIDTH 844 0
DWIDTH 18 0
BBX 14 22 2 -6
BITMAP
801C
C01C
E01C
F01C
F81C
DC1C
CE1C
C71C
C39C
C1DC
C0FC
C07C
C03C
C01C
C01C
C00C
0004
0300
0300
0300
0100
0300
ENDCHAR
STARTCHAR ncedilla
ENCODING 326
SWIDTH 548 0
DWIDTH 12 0
BBX 9 16 1 -6
BITMAP
FF00
FF80
E380
E180
E180
E180
E180
E180
E180
E180
0000
0C00
0C00
0C00
0C00
0C00
ENDCHAR
STARTCHAR Ncaron
ENCODING 327
SWIDTH 844 0
DWIDTH 18 0
BBX 14 22 2 -1
BITMAP
1CE0
0F80
0300
0000
0000
801C
C01C
E01C
F01C
F81C
DC1C
CE1C
C71C
C39C
C1DC
C0FC
C07C
C03C
C01C
C01C
C00C
0004
ENDCHAR
STARTCHAR ncaron
ENCODING 328
SWIDTH 548 0
DWIDTH 12 0
BBX 9 16 1 0
BITMAP
2300
3F00
1E00
0C00
0000
0000
FF00
FF80
E380
E180
E180
E180
E180
E180
E180
E180
ENDCHAR
STARTCHAR quoterightn
ENCODING 329
SWIDTH 777 0
DWIDTH 16 0
BBX 13 16 1 0
BITMAP
3800
3000
7000
6000
6000
C000
0FF0
0FF8
0E38
0E18
0E18
0E18
0E18
0E18
0E18
0E18
ENDCHAR
STARTCHAR Omacron
ENCODING 332
SWIDTH 893 0
DWIDTH 19 0
BBX 17 20 1 0
BITMAP
07F000
07F000
000000
000000
07F000
1FF800
3C1C00
380E00
700700
E00300
E00380
E00380
E00380
E00380
E00300
700700
700E00
3C1E00
1FFC00
07F000
ENDCHAR
STARTCHAR omacron
ENCODING 333
SWIDTH 601 0
DWIDTH 13 0
BBX 11 14 1 0
BITMAP
3F80
3F80
0000
0000
3F00
7F80
61C0
E0C0
C0E0
C0E0
E0C0
61C0
7F80
3F00
ENDCHAR
STARTCHAR Obreve
ENCODING 334
SWIDTH 893 0
DWIDTH 19 0
BBX 17 21 1 0
BITMAP
063000
077000
03E000
000000
000000
07F000
1FF800
3C1C00
380E00
700700
E00300
E00380
E00380
E00380
E00380
E00300
700700
700E00
3C1E00
1FFC00
07F000
ENDCHAR
STARTCHAR obreve
ENCODING 335
SWIDTH 601 0
DWIDTH 13 0
BBX 11 15 1 0
BITMAP
3180
3380
1F00
0000
0000
3F00
7F80
61C0
E0C0
C0E0
C0E0
E0C0
61C0
7F80
3F00
ENDCHAR
STARTCHAR Ohungarumlaut
ENCODING 336
SWIDTH 893 0
DWIDTH 19 0
BBX 17 21 1 0
BITMAP
019C00
03B800
077000
002000
000000
07F000
1FF800
3C1C00
380E00
700700
E00300
E00380
E00380
E00380
E00380
E00300
700700
700E00
3C1E00
1FFC00
07F000
ENDCHAR
STARTCHAR ohungarumlaut
ENCODING 337
SWIDTH 601 0
DWIDTH 13 0
BBX 11 16 1 0
BITMAP
08C0
1CC0
1980
3300
0000
0000
3F00
7F80
61C0
E0C0
C0E0
C0E0
E0C0
61C0
7F80
3F00
ENDCHAR
STARTCHAR OE
ENCODING 338
SWIDTH 1183 0
DWIDTH 25 0
BBX 23 16 1 0
BITMAP
07E3FE
1FFBFE
3C3F80
380F80
700780
600380
E003FC
E003FC
E00380
E00380
E00380
700780
700F80
3C1F80
1FFBFE
07F3FE
ENDCHAR
STARTCHAR oe
ENCODING 339
SWIDTH 953 0
DWIDTH 20 0
BBX 18 10 1 0
BITMAP
1F1F00
7FBF80
61F1C0
E0E0C0
C0FFC0
C0FFC0
E0E080
61F1C0
7FFF80
3F1F00
ENDCHAR
STARTCHAR Racute
ENCODING 340
SWIDTH 602 0
DWIDTH 13 0
BBX 10 21 2 0
BITMAP
0C00
1C00
3800
0000
0000
FC00
FE00
CF00
C380
C380
C380
C300
FF00
FE00
F800
DC00
CE00
C700
C700
C380
C1C0
ENDCHAR
STARTCHAR racute
ENCODING 341
SWIDTH 374 0
DWIDTH 8 0
BBX 7 16 1 0
BITMAP
0C
0C
18
30
00
00
FE
FC
E0
E0
E0
E0
E0
E0
E0
E0
ENDCHAR
STARTCHAR Rcedilla
ENCODING 342
SWIDTH 602 0
DWIDTH 13 0
BBX 10 22 2 -6
BITMAP
FC00
FE00
CF00
C380
C380
C380
C300
FF00
FE00
F800
DC00
CE00
C700
C700
C380
C1C0
0000
1800
1800
1800
0800
1800
ENDCHAR
STARTCHAR rcedilla
ENCODING 343
SWIDTH 374 0
DWIDTH 8 0
BBX 7 16 1 -6
BITMAP
FE
FC
E0
E0
E0
E0
E0
E0
E0
E0
00
30
30
30
30
20
ENDCHAR
STARTCHAR Rcaron
ENCODING 344
SWIDTH 602 0
DWIDTH 13 0
BBX 10 22 2 0
BITMAP
4000
EE00
7C00
3800
1000
0000
FC00
FE00
CF00
C380
C380
C380
C300
FF00
FE00
F800
DC00
CE00
C700
C700
C380
C1C0
ENDCHAR
STARTCHAR rcaron
ENCODING 345
SWIDTH 374 0
DWIDTH 8 0
BBX 7 16 1 0
BITMAP
C4
EE
78
30
00
00
FE
FC
E0
E0
E0
E0
E0
E0
E0
E0
ENDCHAR
STARTCHAR Sacute
ENCODING 346
SWIDTH 583 0
DWIDTH 12 0
BBX 10 21 1 0
BITMAP
0300
0700
0E00
0800
0000
1F00
3F80
71C0
6000
6000
7000
3C00
1F00
0780
01C0
00C0
60C0
E0C0
71C0
7F80
3F00
ENDCHAR
STARTCHAR sacute
ENCODING 347
SWIDTH 405 0
DWIDTH 9 0
BBX 7 16 1 0
BITMAP
0C
0E
18
30
00
00
78
7C
C8
E0
78
1E
0E
46
FE
7C
ENDCHAR
STARTCHAR Scircumflex
ENCODING 348
SWIDTH 583 0
DWIDTH 12 0
BBX 10 22 1 0
BITMAP
0400
0E00
1F00
3380
0000
0000
1F00
3F80
71C0
6000
6000
7000
3C00
1F00
0780
01C0
00C0
60C0
E0C0
71C0
7F80
3F00
ENDCHAR
STARTCHAR scircumflex
ENCODING 349
SWIDTH 405 0
DWIDTH 9 0
BBX 7 16 1 0
BITMAP
10
38
7C
CE
00
00
78
7C
C8
E0
78
1E
0E
46
FE
7C
ENDCHAR
STARTCHAR Scedilla
ENCODING 350
SWIDTH 583 0
DWIDTH 12 0
BBX 10 21 1 -5
BITMAP
1F00
3F80
71C0
6000
6000
7000
3C00
1F00
0780
01C0
00C0
60C0
E0C0
71C0
7F80
3F00
0000
0400
0E00
0C00
1800
ENDCHAR
STARTCHAR scedilla
ENCODING 351
SWIDTH 405 0
DWIDTH 9 0
BBX 7 15 1 -5
BITMAP
78
7C
C8
E0
78
1E
0E
46
FE
7C
00
10
38
30
60
ENDCHAR
STARTCHAR Scaron
ENCODING 352
SWIDTH 583 0
DWIDTH 12 0
BBX 10 22 1 0
BITMAP
1100
3B80
1F00
0E00
0400
0000
1F00
3F80
71C0
6000
6000
7000
3C00
1F00
0780
01C0
00C0
60C0
E0C0
71C0
7F80
3F00
ENDCHAR
STARTCHAR scaron
ENCODING 353
SWIDTH 405 0
DWIDTH 9 0
BBX 7 16 1 0
BITMAP
44
EE
78
30
00
00
78
7C
C8
E0
78
1E
0E
46
FE
7C
ENDCHAR
STARTCHAR Tcedilla
ENCODING 354
SWIDTH 482 0
DWIDTH 10 0
BBX 10 22 0 -6
BITMAP
FFC0
FFC0
0C00
0C00
0C00
0C00
0C00
0C00
0C00
0C00
0C00
0C00
0C00
0C00
0C00
0C00
0000
0C00
0C00
0C00
0400
0C00
ENDCHAR
STARTCHAR tcedilla
ENCODING 355
SWIDTH 273 0
DWIDTH 6 0
BBX 5 20 1 -6
BITMAP
60
60
60
60
F8
F8
60
60
60
60
60
60
60
60
00
60
60
60
60
40
ENDCHAR
STARTCHAR Tcaron
ENCODING 356
SWIDTH 482 0
DWIDTH 10 0
BBX 10 21 0 0
BITMAP
3380
1F00
0C00
0000
0000
FFC0
FFC0
0C00
0C00
0C00
0C00
0C00
0C00
0C00
0C00
0C00
0C00
0C00
0C00
0C00
0C00
ENDCHAR
STARTCHAR tcaron
ENCODING 357
SWIDTH 376 0
DWIDTH 8 0
BBX 7 16 1 0
BITMAP
0E
0E
6E
66
64
60
F8
F8
60
60
60
60
60
60
60
60
ENDCHAR
STARTCHAR Tbar
ENCODING 358
SWIDTH 482 0
DWIDTH 10 0
BBX 10 16 0 0
BITMAP
FFC0
FFC0
0C00
0C00
0C00
0C00
1E00
1E00
0C00
0C00
0C00
0C00
0C00
0C00
0C00
0C00
ENDCHAR
STARTCHAR tbar
ENCODING 359
SWIDTH 273 0
DWIDTH 6 0
BBX 6 14 0 0
BITMAP
30
30
30
30
7C
7C
30
30
F8
F8
30
30
30
30
ENDCHAR
STARTCHAR Utilde
ENCODING 360
SWIDTH 738 0
DWIDTH 16 0
BBX 12 21 2 0
BITMAP
1C00
3FC0
3780
0000
0000
C070
C070
C070
C070
C070
C070
C070
C070
C070
C070
C070
C070
E060
70E0
7FC0
1F80
ENDCHAR
STARTCHAR utilde
ENCODING 361
SWIDTH 544 0
DWIDTH 11 0
BBX 9 15 1 0
BITMAP
3800
7F80
6F00
0000
0000
E180
E180
E180
E180
E180
E180
E180
6380
7F00
3E00
ENDCHAR
STARTCHAR Umacron
ENCODING 362
SWIDTH 738 0
DWIDTH 16 0
BBX 12 20 2 0
BITMAP
3F80
3F80
0000
0000
C070
C070
C070
C070
C070
C070
C070
C070
C070
C070
C070
C070
E060
70E0
7FC0
1F80
ENDCHAR
STARTCHAR umacron
ENCODING 363
SWIDTH 544 0
DWIDTH 11 0
BBX 9 14 1 0
BITMAP
7F00
7F00
0000
0000
E180
E180
E180
E180
E180
E180
E180
6380
7F00
3E00
ENDCHAR
STARTCHAR Ubreve
ENCODING 364
SWIDTH 738 0
DWIDTH 16 0
BBX 12 21 2 0
BITMAP
3180
3980
1F00
0000
0000
C070
C070
C070
C070
C070
C070
C070
C070
C070
C070
C070
C070
E060
70E0
7FC0
1F80
ENDCHAR
STARTCHAR ubreve
ENCODING 365
SWIDTH 544 0
DWIDTH 11 0
BBX 9 15 1 0
BITMAP
6180
3300
3F00
0000
0000
E180
E180
E180
E180
E180
E180
E180
6380
7F00
3E00
ENDCHAR
STARTCHAR Uring
ENCODING 366
SWIDTH 738 0
DWIDTH 16 0
BBX 12 22 2 0
BITMAP
0600
0F00
0900
0F00
0600
0000
C070
C070
C070
C070
C070
C070
C070
C070
C070
C070
C070
C070
E060
70E0
7FC0
1F80
ENDCHAR
STARTCHAR uring
ENCODING 367
SWIDTH 544 0
DWIDTH 11 0
BBX 9 16 1 0
BITMAP
1C00
1600
1200
1E00
0000
0000
E180
E180
E180
E180
E180
E180
E180
6380
7F00
3E00
ENDCHAR
STARTCHAR Uhungarumlaut
ENCODING 368
SWIDTH 738 0
DWIDTH 16 0
BBX 12 22 2 0
BITMAP
0400
0E60
1EE0
3980
1100
0000
C070
C070
C070
C070
C070
C070
C070
C070
C070
C070
C070
C070
E060
70E0
7FC0
1F80
ENDCHAR
STARTCHAR uhungarumlaut
ENCODING 369
SWIDTH 544 0
DWIDTH 11 0
BBX 10 16 1 0
BITMAP
0880
1DC0
3980
3300
0000
0000
E180
E180
E180
E180
E180
E180
E180
6380
7F00
3E00
ENDCHAR
STARTCHAR Uogonek
ENCODING 370
SWIDTH 738 0
DWIDTH 16 0
BBX 12 21 2 -5
BITMAP
C070
C070
C070
C070
C070
C070
C070
C070
C070
C070
C070
C070
E060
70E0
7FC0
1F80
0600
0C00
0C00
0F00
0F00
ENDCHAR
STARTCHAR uogonek
ENCODING 371
SWIDTH 544 0
DWIDTH 11 0
BBX 9 15 1 -5
BITMAP
E180
E180
E180
E180
E180
E180
E180
6380
7F00
3E00
0C00
1800
3800
3E00
1E00
ENDCHAR
STARTCHAR Wcircumflex
ENCODING 372
SWIDTH 1060 0
DWIDTH 22 0
BBX 22 22 0 0
BITMAP
001000
007800
00FC00
00CC00
000000
000000
E0101C
60301C
703018
703838
307830
387870
18FC70
1CCC60
1CCCE0
0DCEC0
0F87C0
078780
078780
070380
030300
020100
ENDCHAR
STARTCHAR wcircumflex
ENCODING 373
SWIDTH 773 0
DWIDTH 16 0
BBX 16 16 0 0
BITMAP
0080
03C0
07E0
0660
0000
0000
E087
6186
71CE
33CC
3BCC
1F78
1E78
0E38
0C30
0430
ENDCHAR
STARTCHAR Ycircumflex
ENCODING 374
SWIDTH 600 0
DWIDTH 13 0
BBX 12 22 0 0
BITMAP
0200
0700
1F80
19C0
0000
0000
E030
6070
7060
38E0
39C0
1DC0
0F80
0F00
0700
0600
0600
0600
0600
0600
0600
0600
ENDCHAR
STARTCHAR ycircumflex
ENCODING 375
SWIDTH 543 0
DWIDTH 11 0
BBX 11 21 0 -5
BITMAP
0400
0F00
1F80
1980
0000
0000
E0E0
70E0
71C0
39C0
1B80
1F00
0F00
0E00
0E00
0C00
1C00
1800
3800
3000
7000
ENDCHAR
STARTCHAR Ydieresis
ENCODING 376
SWIDTH 600 0
DWIDTH 13 0
BBX 12 20 0 0
BITMAP
19C0
19C0
0080
0000
E030
6070
7060
38E0
39C0
1DC0
0F80
0F00
0700
0600
0600
0600
0600
0600
0600
0600
ENDCHAR
STARTCHAR Zacute
ENCODING 377
SWIDTH 625 0
DWIDTH 13 0
BBX 11 21 1 0
BITMAP
0380
0780
0E00
0400
0000
7FE0
7FE0
01C0
01C0
0380
0300
0700
0600
0E00
1C00
1800
3800
3000
7000
7FE0
FFE0
ENDCHAR
STARTCHAR zacute
ENCODING 378
SWIDTH 543 0
DWIDTH 11 0
BBX 10 16 1 0
BITMAP
0300
0300
0600
0C00
0000
0000
7FC0
7F80
0700
0600
0E00
1C00
3800
7000
FFC0
FFC0
ENDCHAR
STARTCHAR Zdotaccent
ENCODING 379
SWIDTH 625 0
DWIDTH 13 0
BBX 11 20 1 0
BITMAP
0600
0600
0400
0000
7FE0
7FE0
01C0
01C0
0380
0300
0700
0600
0E00
1C00
1800
3800
3000
7000
7FE0
FFE0
ENDCHAR
STARTCHAR zdotaccent
ENCODING 380
SWIDTH 543 0
DWIDTH 11 0
BBX 10 15 1 0
BITMAP
0C00
0E00
0E00
0000
0000
7FC0
7F80
0700
0600
0E00
1C00
3800
7000
FFC0
FFC0
ENDCHAR
STARTCHAR Zcaron
ENCODING 381
SWIDTH 625 0
DWIDTH 13 0
BBX 11 21 1 0
BITMAP
39C0
0F80
0600
0000
0000
7FE0
7FE0
01C0
01C0
0380
0300
0700
0600
0E00
1C00
1800
3800
3000
7000
7FE0
FFE0
ENDCHAR
STARTCHAR zcaron
ENCODING 382
SWIDTH 543 0
DWIDTH 11 0
BBX 10 16 1 0
BITMAP
3100
3B00
1E00
0C00
0000
0000
7FC0
7F80
0700
0600
0E00
1C00
3800
7000
FFC0
FFC0
ENDCHAR
STARTCHAR florin
ENCODING 402
SWIDTH 641 0
DWIDTH 13 0
BBX 11 21 1 -4
BITMAP
00E0
03E0
03A0
0700
0700
0600
0600
1FC0
1FC0
0E00
0E00
0C00
0C00
0C00
1C00
1C00
1800
1800
7800
F000
C000
ENDCHAR
STARTCHAR Scommaaccent
ENCODING 536
SWIDTH 583 0
DWIDTH 12 0
BBX 10 21 1 -5
BITMAP
1F00
3F80
71C0
6000
6000
7000
3C00
1F00
0780
01C0
00C0
60C0
E0C0
71C0
7F80
3F00
0000
0400
0E00
0C00
1800
ENDCHAR
STARTCHAR scommaaccent
ENCODING 537
SWIDTH 405 0
DWIDTH 9 0
BBX 7 15 1 -5
BITMAP
78
7C
C8
E0
78
1E
0E
46
FE
7C
00
10
38
30
60
ENDCHAR
STARTCHAR Tcedilla.dup1
ENCODING 538
SWIDTH 482 0
DWIDTH 10 0
BBX 10 22 0 -6
BITMAP
FFC0
FFC0
0C00
0C00
0C00
0C00
0C00
0C00
0C00
0C00
0C00
0C00
0C00
0C00
0C00
0C00
0000
0C00
0C00
0C00
0400
0C00
ENDCHAR
STARTCHAR tcedilla.dup2
ENCODING 539
SWIDTH 273 0
DWIDTH 6 0
BBX 5 20 1 -6
BITMAP
60
60
60
60
F8
F8
60
60
60
60
60
60
60
60
00
60
60
60
60
40
ENDCHAR
STARTCHAR quoteleft
ENCODING 699
SWIDTH 326 0
DWIDTH 7 0
BBX 4 6 2 10
BITMAP
30
60
60
C0
C0
C0
ENDCHAR
STARTCHAR quoteright
ENCODING 700
SWIDTH 326 0
DWIDTH 7 0
BBX 5 6 1 10
BITMAP
38
30
70
60
60
C0
ENDCHAR
STARTCHAR circumflex
ENCODING 710
SWIDTH 565 0
DWIDTH 12 0
BBX 6 4 3 12
BITMAP
30
78
FC
CC
ENDCHAR
STARTCHAR caron
ENCODING 711
SWIDTH 565 0
DWIDTH 12 0
BBX 6 4 3 12
BITMAP
8C
FC
78
30
ENDCHAR
STARTCHAR macron.dup3
ENCODING 713
SWIDTH 565 0
DWIDTH 12 0
BBX 8 2 2 12
BITMAP
FF
FF
ENDCHAR
STARTCHAR breve
ENCODING 728
SWIDTH 565 0
DWIDTH 12 0
BBX 8 3 2 12
BITMAP
C3
66
7E
ENDCHAR
STARTCHAR dotaccent
ENCODING 729
SWIDTH 565 0
DWIDTH 12 0
BBX 3 3 4 12
BITMAP
60
E0
60
ENDCHAR
STARTCHAR ring
ENCODING 730
SWIDTH 565 0
DWIDTH 12 0
BBX 4 4 4 12
BITMAP
70
D0
90
F0
ENDCHAR
STARTCHAR ogonek
ENCODING 731
SWIDTH 650 0
DWIDTH 14 0
BBX 4 5 5 -5
BITMAP
60
C0
C0
F0
F0
ENDCHAR
STARTCHAR tilde
ENCODING 732
SWIDTH 565 0
DWIDTH 12 0
BBX 8 3 2 12
BITMAP
70
FF
DE
ENDCHAR
STARTCHAR hungarumlaut
ENCODING 733
SWIDTH 565 0
DWIDTH 12 0
BBX 8 4 3 12
BITMAP
23
73
66
CC
ENDCHAR
STARTCHAR gravecmb
ENCODING 768
SWIDTH 0 0
DWIDTH 0 0
BBX 4 4 -9 12
BITMAP
C0
C0
60
30
ENDCHAR
STARTCHAR acutecmb
ENCODING 769
SWIDTH 0 0
DWIDTH 0 0
BBX 5 4 -7 12
BITMAP
30
38
60
C0
ENDCHAR
STARTCHAR circumflexcmb
ENCODING 770
SWIDTH 0 0
DWIDTH 0 0
BBX 6 4 -9 12
BITMAP
30
78
FC
CC
ENDCHAR
STARTCHAR tildecmb
ENCODING 771
SWIDTH 0 0
DWIDTH 0 0
BBX 8 3 -10 12
BITMAP
70
FF
DE
ENDCHAR
STARTCHAR macroncmb
ENCODING 772
SWIDTH 0 0
DWIDTH 0 0
BBX 8 2 -10 12
BITMAP
FF
FF
ENDCHAR
STARTCHAR brevecmb
ENCODING 774
SWIDTH 0 0
DWIDTH 0 0
BBX 8 3 -10 12
BITMAP
C3
66
7E
ENDCHAR
STARTCHAR dotaccentcmb
ENCODING 775
SWIDTH 0 0
DWIDTH 0 0
BBX 3 3 -7 12
BITMAP
C0
E0
C0
ENDCHAR
STARTCHAR dieresiscmb
ENCODING 776
SWIDTH 0 0
DWIDTH 0 0
BBX 7 3 -9 12
BITMAP
C4
CE
CE
ENDCHAR
STARTCHAR ringcmb
ENCODING 778
SWIDTH 0 0
DWIDTH 0 0
BBX 5 4 -8 12
BITMAP
70
D8
98
70
ENDCHAR
STARTCHAR hungarumlautcmb
ENCODING 779
SWIDTH 0 0
DWIDTH 0 0
BBX 8 4 -9 12
BITMAP
31
33
66
C4
ENDCHAR
STARTCHAR caroncmb
ENCODING 780
SWIDTH 0 0
DWIDTH 0 0
BBX 6 4 -9 12
BITMAP
C4
EC
78
30
ENDCHAR
STARTCHAR commaaccent
ENCODING 806
SWIDTH 0 0
DWIDTH 0 0
BBX 3 5 -4 -6
BITMAP
E0
E0
E0
60
40
ENDCHAR
STARTCHAR cedillacmb
ENCODING 807
SWIDTH 0 0
DWIDTH 0 0
BBX 4 4 -8 -5
BITMAP
20
30
60
C0
ENDCHAR
STARTCHAR ogonekcmb
ENCODING 808
SWIDTH 0 0
DWIDTH 0 0
BBX 5 5 -9 -5
BITMAP
60
C0
C0
F8
70
ENDCHAR
STARTCHAR soliduslongoverlaycmb
ENCODING 824
SWIDTH 0 0
DWIDTH 0 0
BBX 11 21 -11 -4
BITMAP
0060
00C0
00C0
01C0
0180
0380
0300
0300
0600
0600
0E00
0C00
1C00
1800
1800
3000
3000
7000
6000
E000
C000
ENDCHAR
STARTCHAR Deltagreek
ENCODING 916
SWIDTH 753 0
DWIDTH 16 0
BBX 14 16 1 0
BITMAP
0700
0780
0780
0F80
0DC0
0CC0
1CE0
1860
3860
3870
3030
7038
6038
E018
FFFC
FFFC
ENDCHAR
STARTCHAR Omegagreek
ENCODING 937
SWIDTH 753 0
DWIDTH 16 0
BBX 14 16 1 0
BITMAP
0FC0
3FF0
7878
7038
E01C
C01C
C00C
C00C
C00C
C01C
E01C
6018
3030
1860
FCFC
FCFC
ENDCHAR
STARTCHAR pi
ENCODING 960
SWIDTH 702 0
DWIDTH 15 0
BBX 13 11 1 0
BITMAP
FFF8
FFF8
3060
3060
3060
3060
3060
3060
3060
3060
3060
ENDCHAR
STARTCHAR zerowidthjoiner
ENCODING 8205
SWIDTH 0 0
DWIDTH 0 0
BBX 1 1 0 0
BITMAP
00
ENDCHAR
STARTCHAR endash
ENCODING 8211
SWIDTH 641 0
DWIDTH 13 0
BBX 9 2 2 4
BITMAP
FF80
FF80
ENDCHAR
STARTCHAR emdash
ENCODING 8212
SWIDTH 652 0
DWIDTH 14 0
BBX 14 2 0 4
BITMAP
FFFC
FFFC
ENDCHAR
STARTCHAR quoteleft.dup4
ENCODING 8216
SWIDTH 326 0
DWIDTH 7 0
BBX 4 6 2 10
BITMAP
30
60
60
C0
C0
C0
ENDCHAR
STARTCHAR quoteright.dup5
ENCODING 8217
SWIDTH 326 0
DWIDTH 7 0
BBX 5 6 1 10
BITMAP
38
30
70
60
60
C0
ENDCHAR
STARTCHAR quotesinglbase
ENCODING 8218
SWIDTH 326 0
DWIDTH 7 0
BBX 4 7 1 -4
BITMAP
30
30
30
60
60
C0
40
ENDCHAR
STARTCHAR quotedblleft
ENCODING 8220
SWIDTH 521 0
DWIDTH 11 0
BBX 8 6 2 10
BITMAP
33
66
66
CC
CC
CC
ENDCHAR
STARTCHAR quotedblright
ENCODING 8221
SWIDTH 521 0
DWIDTH 11 0
BBX 9 6 1 10
BITMAP
3B80
3300
7300
6600
6600
CC00
ENDCHAR
STARTCHAR quotedblbase
ENCODING 8222
SWIDTH 521 0
DWIDTH 11 0
BBX 8 7 1 -4
BITMAP
31
33
33
66
66
C4
44
ENDCHAR
STARTCHAR dagger
ENCODING 8224
SWIDTH 641 0
DWIDTH 13 0
BBX 9 21 2 -4
BITMAP
0C00
0C00
0C00
FF80
FF80
FF80
0C00
0C00
0C00
0C00
0C00
0C00
0C00
0C00
0C00
0C00
0C00
0C00
0C00
0C00
0C00
ENDCHAR
STARTCHAR daggerdbl
ENCODING 8225
SWIDTH 641 0
DWIDTH 13 0
BBX 9 21 2 -4
BITMAP
0C00
0C00
0C00
FF80
FF80
FF80
0C00
0C00
0C00
0C00
0C00
0C00
FF80
FF80
0C00
0C00
0C00
0C00
0C00
0C00
0C00
ENDCHAR
STARTCHAR bullet
ENCODING 8226
SWIDTH 753 0
DWIDTH 16 0
BBX 6 6 5 5
BITMAP
78
FC
FC
FC
FC
78
ENDCHAR
STARTCHAR ellipsis
ENCODING 8230
SWIDTH 944 0
DWIDTH 20 0
BBX 16 3 2 0
BITMAP
4102
E187
E187
ENDCHAR
STARTCHAR perthousand
ENCODING 8240
SWIDTH 1359 0
DWIDTH 29 0
BBX 27 16 1 0
BITMAP
3C0C0000
7E080000
C6180000
C2100000
C6200000
E6600000
7C400000
00C00000
00800000
019F0780
033B8CC0
02319860
06309860
04319860
0C3F8FC0
081F0780
ENDCHAR
STARTCHAR guilsinglleft
ENCODING 8249
SWIDTH 366 0
DWIDTH 8 0
BBX 5 10 1 0
BITMAP
18
18
30
60
E0
E0
70
30
18
08
ENDCHAR
STARTCHAR guilsinglright
ENCODING 8250
SWIDTH 366 0
DWIDTH 8 0
BBX 4 10 2 0
BITMAP
80
C0
60
70
30
30
70
E0
C0
80
ENDCHAR
STARTCHAR fraction
ENCODING 8260
SWIDTH 183 0
DWIDTH 4 0
BBX 10 16 -3 0
BITMAP
0040
0080
0180
0100
0300
0200
0600
0400
0800
1800
1000
3000
2000
6000
C000
8000
ENDCHAR
STARTCHAR Euro
ENCODING 8364
SWIDTH 617 0
DWIDTH 13 0
BBX 9 16 2 0
BITMAP
0780
0F80
1C00
3800
7000
7E00
7E00
0000
0000
FE00
7E00
7000
3800
3C00
1F80
0780
ENDCHAR
STARTCHAR trademark
ENCODING 8482
SWIDTH 794 0
DWIDTH 17 0
BBX 16 9 0 7
BITMAP
FC80
FC86
31C6
31CE
31CA
317A
3133
3333
3313
ENDCHAR
STARTCHAR Omega
ENCODING 8486
SWIDTH 753 0
DWIDTH 16 0
BBX 14 16 1 0
BITMAP
0FC0
3FF0
7878
7038
E01C
C01C
C00C
C00C
C00C
C01C
E01C
6018
3030
1860
FCFC
FCFC
ENDCHAR
STARTCHAR partialdiff
ENCODING 8706
SWIDTH 565 0
DWIDTH 12 0
BBX 10 16 1 0
BITMAP
6000
7C00
3E00
0700
0380
0180
3FC0
77C0
E1C0
C0C0
C0C0
C0C0
C0C0
E1C0
7F80
3F00
ENDCHAR
STARTCHAR Delta
ENCODING 8710
SWIDTH 753 0
DWIDTH 16 0
BBX 14 16 1 0
BITMAP
0700
0780
0780
0F80
0DC0
0CC0
1CE0
1860
3860
3870
3030
7038
6038
E018
FFFC
FFFC
ENDCHAR
STARTCHAR product
ENCODING 8719
SWIDTH 809 0
DWIDTH 17 0
BBX 15 24 1 -6
BITMAP
FFFE
FFFE
3018
3018
3018
3018
3018
3018
3018
3018
3018
3018
3018
3018
3018
3018
3018
3018
3018
3018
3018
3018
FC7E
FC7E
ENDCHAR
STARTCHAR summation
ENCODING 8721
SWIDTH 753 0
DWIDTH 16 0
BBX 14 24 1 -6
BITMAP
FFF8
FFF8
C018
E018
7018
7018
3800
1C00
1C00
0E00
0600
0700
0700
0E00
0E00
1C00
1800
3800
701C
701C
E01C
C01C
FFFC
FFFC
ENDCHAR
STARTCHAR minus
ENCODING 8722
SWIDTH 641 0
DWIDTH 13 0
BBX 11 2 1 7
BITMAP
FFE0
FFE0
ENDCHAR
STARTCHAR divisionslash
ENCODING 8725
SWIDTH 183 0
DWIDTH 4 0
BBX 10 16 -3 0
BITMAP
0040
0080
0180
0100
0300
0200
0600
0400
0800
1800
1000
3000
2000
6000
C000
8000
ENDCHAR
STARTCHAR bulletoperator
ENCODING 8729
SWIDTH 308 0
DWIDTH 6 0
BBX 3 2 2 7
BITMAP
E0
E0
ENDCHAR
STARTCHAR radical
ENCODING 8730
SWIDTH 753 0
DWIDTH 16 0
BBX 16 20 0 0
BITMAP
007F
007F
007F
00E0
00E0
00E0
00C0
01C0
01C0
01C0
0180
F380
F380
3B80
3B00
1B00
1F00
1E00
1E00
0E00
ENDCHAR
STARTCHAR infinity
ENCODING 8734
SWIDTH 753 0
DWIDTH 16 0
BBX 15 8 0 4
BITMAP
1C38
7E7E
67CE
E386
E3C6
77EE
7E7C
1818
ENDCHAR
STARTCHAR integral
ENCODING 8747
SWIDTH 565 0
DWIDTH 12 0
BBX 8 24 2 -6
BITMAP
07
1F
1D
18
18
18
18
18
18
18
18
18
18
18
18
18
18
18
18
18
18
38
F8
E0
ENDCHAR
STARTCHAR approxequal
ENCODING 8776
SWIDTH 565 0
DWIDTH 12 0
BBX 11 8 0 4
BITMAP
3C20
7FE0
C7C0
4000
3820
7F60
7FE0
43C0
ENDCHAR
STARTCHAR notequal
ENCODING 8800
SWIDTH 565 0
DWIDTH 12 0
BBX 10 10 1 3
BITMAP
0300
0200
FFC0
FFC0
0C00
0C00
FFC0
FFC0
3000
3000
ENDCHAR
STARTCHAR lessequal
ENCODING 8804
SWIDTH 565 0
DWIDTH 12 0
BBX 10 14 1 1
BITMAP
0040
01C0
0F80
3E00
F800
E000
F000
3E00
0F80
03C0
00C0
0000
FFC0
FFC0
ENDCHAR
STARTCHAR greaterequal
ENCODING 8805
SWIDTH 565 0
DWIDTH 12 0
BBX 10 14 1 1
BITMAP
8000
E000
7800
1F00
07C0
01C0
03C0
1F00
7C00
F000
C000
0000
FFC0
FFC0
ENDCHAR
STARTCHAR lozenge
ENCODING 9674
SWIDTH 753 0
DWIDTH 16 0
BBX 12 16 2 0
BITMAP
0600
0600
0F00
1F80
39C0
31C0
70E0
E070
E070
70E0
30C0
39C0
1F80
0F00
0E00
0600
ENDCHAR
STARTCHAR apple
ENCODING 63743
SWIDTH 790 0
DWIDTH 17 0
BBX 14 17 1 0
BITMAP
0060
00E0
00C0
0180
3EF8
7FFC
7FF8
FFF8
FFF0
FFF0
FFF8
FFF8
7FFC
7FFC
7FFC
3FF8
1FF8
ENDCHAR
STARTCHAR fi
ENCODING 64257
SWIDTH 530 0
DWIDTH 11 0
BBX 9 18 1 0
BITMAP
0C00
3E00
7F00
6380
6380
6000
6000
6000
FB80
FB80
6380
6380
6380
6380
6380
6380
6380
6380
ENDCHAR
STARTCHAR fl
ENCODING 64258
SWIDTH 530 0
DWIDTH 11 0
BBX 9 18 1 0
BITMAP
0C00
3E00
7F00
6380
6380
6380
6380
6380
FB80
FB80
6380
6380
6380
6380
6380
6380
6380
6380
ENDCHAR
STARTCHAR Dieresis
ENCODING -1
SWIDTH 740 0
DWIDTH 16 0
BBX 8 3 4 17
BITMAP
E7
E7
42
ENDCHAR
STARTCHAR Grave
ENCODING -1
SWIDTH 740 0
DWIDTH 16 0
BBX 4 4 5 17
BITMAP
C0
E0
30
10
ENDCHAR
STARTCHAR judge
ENCODING -1
SWIDTH 700 0
DWIDTH 15 0
BBX 4 4 6 -5
BITMAP
20
30
60
C0
ENDCHAR
STARTCHAR up
ENCODING -1
SWIDTH 294 0
DWIDTH 6 0
BBX 4 3 2 18
BITMAP
30
70
E0
ENDCHAR
STARTCHAR oak
ENCODING -1
SWIDTH 294 0
DWIDTH 6 0
BBX 4 3 0 18
BITMAP
C0
E0
70
ENDCHAR
STARTCHAR uniE770
ENCODING -1
SWIDTH 249 0
DWIDTH 5 0
BBX 7 3 -1 12
BITMAP
44
EE
EE
ENDCHAR
STARTCHAR uniE773
ENCODING -1
SWIDTH 249 0
DWIDTH 5 0
BBX 4 4 2 12
BITMAP
20
70
E0
C0
ENDCHAR
STARTCHAR uniE774
ENCODING -1
SWIDTH 249 0
DWIDTH 5 0
BBX 5 4 -1 12
BITMAP
40
E0
70
38
ENDCHAR
STARTCHAR uniE772
ENCODING -1
SWIDTH 249 0
DWIDTH 5 0
BBX 7 4 -1 12
BITMAP
10
38
7C
E6
ENDCHAR
STARTCHAR ash
ENCODING -1
SWIDTH 249 0
DWIDTH 5 0
BBX 3 5 1 11
BITMAP
E0
E0
E0
60
40
ENDCHAR
STARTCHAR yea
ENCODING -1
SWIDTH 842 0
DWIDTH 18 0
BBX 7 4 6 17
BITMAP
86
CE
FC
30
ENDCHAR
STARTCHAR ice
ENCODING -1
SWIDTH 294 0
DWIDTH 6 0
BBX 7 3 0 18
BITMAP
30
7C
CE
ENDCHAR
STARTCHAR sure
ENCODING -1
SWIDTH 740 0
DWIDTH 16 0
BBX 8 3 4 18
BITMAP
18
7C
E7
ENDCHAR
STARTCHAR hung
ENCODING -1
SWIDTH 740 0
DWIDTH 16 0
BBX 8 3 4 17
BITMAP
FB
FF
04
ENDCHAR
STARTCHAR fee
ENCODING -1
SWIDTH 740 0
DWIDTH 16 0
BBX 4 5 6 17
BITMAP
60
F0
90
F0
60
ENDCHAR
STARTCHAR Caron
ENCODING -1
SWIDTH 625 0
DWIDTH 13 0
BBX 8 3 3 18
BITMAP
E7
3E
18
ENDCHAR
STARTCHAR Acute
ENCODING -1
SWIDTH 565 0
DWIDTH 12 0
BBX 4 4 5 17
BITMAP
30
70
E0
80
ENDCHAR
STARTCHAR eat
ENCODING -1
SWIDTH 294 0
DWIDTH 6 0
BBX 6 3 0 17
BITMAP
CC
EC
44
ENDCHAR
STARTCHAR kick
ENCODING -1
SWIDTH 294 0
DWIDTH 6 0
BBX 3 3 2 17
BITMAP
E0
E0
40
ENDCHAR
STARTCHAR uniF6C3
ENCODING -1
SWIDTH 249 0
DWIDTH 5 0
BBX 2 5 2 -6
BITMAP
C0
C0
C0
C0
80
ENDCHAR
STARTCHAR uniE784
ENCODING -1
SWIDTH 249 0
DWIDTH 5 0
BBX 2 5 2 12
BITMAP
80
80
80
C0
C0
ENDCHAR
STARTCHAR Hungarumlaut
ENCODING -1
SWIDTH 893 0
DWIDTH 19 0
BBX 9 4 6 17
BITMAP
3380
7700
EE00
0400
ENDCHAR
STARTCHAR Macron
ENCODING -1
SWIDTH 565 0
DWIDTH 12 0
BBX 8 2 2 18
BITMAP
FF
FF
ENDCHAR
STARTCHAR ooze
ENCODING -1
SWIDTH 294 0
DWIDTH 6 0
BBX 6 2 0 18
BITMAP
FC
FC
ENDCHAR
STARTCHAR uniE775
ENCODING -1
SWIDTH 249 0
DWIDTH 5 0
BBX 5 2 0 12
BITMAP
F8
F8
ENDCHAR
STARTCHAR dotlessj
ENCODING -1
SWIDTH 331 0
DWIDTH 7 0
BBX 3 13 2 -4
BITMAP
E0
E0
E0
E0
E0
E0
E0
E0
E0
E0
E0
E0
E0
ENDCHAR
ENDFONT
